<svg width="117" height="107" viewBox="0 0 117 107" fill="none" xmlns="http://www.w3.org/2000/svg">
<rect x="2" y="2" width="113" height="103" rx="18" fill="#F5F5F5" stroke="#028A94" stroke-width="4"/>
<path d="M90.5519 93.258C90.3442 93.4445 90.0832 93.3699 89.8436 93.3699C85.4073 93.3753 80.9657 93.3752 76.5294 93.3806C74.4897 93.3806 72.4446 93.3753 70.4049 93.3859C69.9522 93.3912 69.6007 93.2633 69.2492 92.9648C66.6929 90.79 64.1153 88.6418 61.5483 86.483C58.9813 84.3241 56.4197 82.1599 53.8527 79.9958C51.9248 78.37 49.9916 76.7548 48.0744 75.1237C46.237 73.5619 44.4103 71.9787 42.5783 70.4062C41.3907 69.3881 40.203 68.3753 39.0207 67.3572C38.403 66.8242 38.3976 66.8135 39.0261 66.2911C41.0924 64.5854 43.1641 62.885 45.2358 61.1845C47.9785 58.9297 50.7159 56.6696 53.4586 54.4148C55.6528 52.6131 57.8576 50.8168 60.0518 49.0204C61.8252 47.5705 63.5614 46.078 65.2496 44.5321C66.416 43.466 67.5397 42.352 68.6421 41.2219C70.3836 39.4415 72.0186 37.5759 73.4565 35.5343C74.3033 34.3243 75.0648 33.061 75.672 31.7124C76.6572 29.5215 75.9809 27.1815 73.9997 25.8488C72.8014 25.0439 71.4487 24.7135 70.0481 24.5269C68.477 24.319 66.9006 24.4043 65.3189 24.4896C62.6188 24.6335 59.9506 25.0066 57.3144 25.593C51.4562 26.8883 45.9441 29.0525 40.8954 32.32C39.2551 33.3808 37.7426 34.6228 36.1715 35.7795C35.9904 35.9128 35.804 36.1953 35.6017 36.094C35.3833 35.9874 35.5324 35.6729 35.5484 35.4543C35.6656 33.8819 35.804 32.304 35.9372 30.7316C36.0171 29.7401 36.1023 28.7486 36.1822 27.7572C36.3153 26.1473 36.4484 24.5375 36.5816 22.9277C36.6189 22.4853 36.6828 22.0429 36.6934 21.6005C36.7041 21.2593 36.8638 21.0514 37.1354 20.8702C38.387 20.0226 39.6758 19.2391 41.0072 18.5248C43.8245 17.0109 46.7483 15.7209 49.7839 14.7028C52.9367 13.6421 56.1587 12.8691 59.4553 12.4161C62.1714 12.0483 64.8981 11.9257 67.6355 12.0429C70.8735 12.1815 74.0743 12.6293 77.1738 13.5834C81.4982 14.9107 84.8215 17.5546 87.1328 21.4459C88.4429 23.6474 89.2258 26.0247 89.4814 28.5727C89.9554 33.2102 88.7305 37.3733 85.9079 41.0567C85.1516 42.0428 84.2995 42.9543 83.4581 43.8658C81.5462 45.9447 79.6076 47.9969 77.5839 49.9692C73.7387 53.7112 69.7285 57.2666 65.3988 60.4489C63.3377 61.9628 61.2181 63.3913 58.9973 64.6653C58.8748 64.7346 58.7523 64.8146 58.6298 64.8785C58.4221 64.9905 58.4488 65.1024 58.6085 65.241C58.7736 65.3796 58.9174 65.5342 59.0825 65.6728C61.6229 67.8903 64.1579 70.1131 66.6982 72.3306C69.2545 74.5587 71.8215 76.7708 74.3778 78.999C76.4389 80.7953 78.4892 82.6024 80.5503 84.3987C82.6379 86.2164 84.7256 88.0341 86.8186 89.8518C87.9583 90.8433 89.0926 91.8347 90.227 92.8315C90.3655 92.9435 90.5306 93.0394 90.5519 93.258Z" fill="#075358"/>
<path d="M35.6382 96.9999C32.9913 96.9999 30.3498 96.9999 27.7029 96.9999C26.9413 96.9999 26.92 96.9733 27.0798 96.2643C28.3313 90.7207 29.5882 85.177 30.8397 79.6333C32.2617 73.3433 33.6783 67.0587 35.1003 60.7687C36.8418 53.0769 38.5886 45.3903 40.3301 37.7038C40.5484 36.7336 40.7881 35.7688 40.9904 34.7933C41.0703 34.3989 41.2674 34.1377 41.6082 33.9245C44.2231 32.2987 46.9605 30.9128 49.8364 29.8147C52.382 28.8445 54.9969 28.1356 57.6971 27.7358C58.0486 27.6825 58.4 27.6292 58.7515 27.5972C59.1297 27.5652 59.2042 27.6452 59.1297 28.0236C58.9539 28.9138 58.7622 29.7987 58.5705 30.6836C57.3722 36.2752 56.1739 41.8669 54.9756 47.4585C54.8478 48.0502 54.7094 48.6366 54.5975 49.2283C54.5336 49.5588 54.3845 49.8146 54.1342 50.0385C53.0637 50.9713 52.0039 51.9201 50.9388 52.8583C49.2985 54.3029 47.6635 55.7421 46.0232 57.1867C44.0367 58.935 42.0556 60.6834 40.0691 62.4372C38.7643 63.5886 37.4595 64.7399 36.1547 65.8913C36.0908 65.95 36.0216 66.0086 35.9577 66.0726C35.6967 66.3391 35.6861 66.3657 35.9577 66.6216C36.6234 67.2612 37.2998 67.8902 37.9761 68.5192C38.743 69.2335 39.5152 69.9425 40.2768 70.6568C42.8544 73.0715 45.4267 75.4915 48.015 77.9009C48.2706 78.1354 48.3505 78.3486 48.276 78.6898C47.6475 81.5896 47.0298 84.4893 46.412 87.3891C45.8102 90.2036 45.2084 93.0181 44.6066 95.8272C44.5533 96.0884 44.4734 96.3443 44.4255 96.6055C44.3722 96.8827 44.2071 96.9946 43.9409 96.9946C43.7278 96.9946 43.5148 96.9999 43.3018 96.9999C40.7508 96.9946 38.1945 96.9946 35.6382 96.9999Z" fill="#028A94"/>
</svg>
