<svg width="112" height="107" viewBox="0 0 112 107" fill="none" xmlns="http://www.w3.org/2000/svg">
<rect width="112" height="107" rx="9" fill="#E9E8E8"/>
<path d="M61.9203 29.7788C65.3299 29.7788 70.3546 29.5544 75.2895 30.4517C93.5487 33.7716 95.1189 50.9541 90.498 61.2726C88.6587 65.3551 85.3388 68.2712 81.3011 70.1106C79.2374 71.0527 79.5066 71.7705 80.5833 73.3407C84.8453 79.3972 88.9727 85.5434 93.145 91.6448C93.5487 92.228 94.3114 92.8561 93.8628 93.6188C93.4141 94.3366 92.5169 94.0225 91.7991 94.0225C87.8511 94.0674 83.8583 93.9777 79.9104 94.0674C78.385 94.1123 77.4429 93.5739 76.5905 92.2729C73.0015 86.7547 69.233 81.3712 65.6888 75.853C64.657 74.2828 63.4905 73.6099 61.6511 73.7445C59.6323 73.8791 57.6135 73.8342 55.5946 73.7445C54.0693 73.6996 53.4861 74.3277 53.4861 75.853C53.5309 81.102 53.4412 86.3061 53.5309 91.5551C53.5758 93.3945 52.9477 94.1123 51.0635 94.0674C47.6988 93.9777 44.334 94.0225 40.9693 94.0674C39.5337 94.0674 38.9056 93.4842 38.9505 92.0486C38.9953 89.7157 38.9953 87.4277 38.9505 85.0948C38.9505 84.0629 39.3542 83.2554 40.0721 82.4927C45.7697 76.5708 49.9868 69.7965 52.4094 61.9006C52.7234 60.8688 53.3066 60.5996 54.3833 60.5996C59.408 60.6445 64.3878 60.7791 69.4124 60.5548C75.2446 60.3304 78.6542 56.0236 77.8915 50.2363C77.398 46.5126 74.8409 44.0452 70.7135 43.3274C66.0477 42.5198 61.2922 42.9236 56.6265 42.9685C54.6077 42.9685 53.6655 42.3852 53.2618 40.3664C52.6337 37.2709 51.1981 34.4445 49.583 31.7527C48.6857 30.2274 49.1792 29.7339 50.7494 29.7339C53.8899 29.8236 57.12 29.7788 61.9203 29.7788Z" fill="#478767"/>
<path d="M46.3534 30.4067C50.3911 34.8033 52.4099 40.0074 52.9034 45.6602C54.6531 66.1177 40.0277 87.3827 20.288 93.2149C19.5702 93.4392 18.8524 93.5289 18 93.3944C20.3329 91.6447 22.7555 89.9848 24.9986 88.1005C28.9914 84.8255 32.6253 81.1468 34.8236 76.3464C37.3808 70.6488 36.1695 63.8745 31.7729 59.6125C27.6007 55.5749 23.6527 55.216 18.987 58.491C17.9551 55.53 20.0637 52.6588 23.563 52.255C25.8062 51.9858 28.0044 52.5242 30.2476 52.8382C32.9842 53.1971 35.676 53.9598 38.4575 54.0047C42.54 54.0944 45.501 52.0756 46.8469 48.2173C48.5068 43.5516 48.1928 38.7961 47.2507 34.0855C46.9366 32.8293 46.6674 31.618 46.3534 30.4067Z" fill="#478767"/>
<path d="M42.2712 46.423C42.2264 49.0699 40.0281 51.2233 37.3812 51.2233C34.7342 51.1784 32.5808 48.9802 32.6257 46.3332C32.6706 43.6863 34.9137 41.488 37.5158 41.5329C40.1178 41.5329 42.2712 43.7761 42.2712 46.423Z" fill="#478767"/>
<path d="M49.2697 13C49.9427 16.589 51.9166 17.8452 55.4159 17.4414C52.455 19.3705 51.3334 21.6586 53.442 24.8887C51.5129 24.5298 50.7502 22.8699 49.3146 22.825C47.8341 22.7801 47.0714 24.4401 45.2321 24.8887C46.6228 21.7931 46.8471 19.1014 42.7197 17.6657C46.219 17.6657 48.7314 16.9031 49.2697 13Z" fill="#478767"/>
</svg>
