<svg width="87" height="126" viewBox="0 0 87 126" fill="none" xmlns="http://www.w3.org/2000/svg">
<path d="M83.2 78.5C83.2 83.5667 81.8667 87.7 79.2 90.9C76.6 94.0333 73.0667 96.3 68.6 97.7C64.2 99.1 59.2667 99.7 53.8 99.5C48.3333 99.3667 42.7667 98.5333 37.1 97C37.1 94.1333 37.1 91.2667 37.1 88.4C37.1 85.5333 37.1 82.6667 37.1 79.8C42.3 81.6667 47.0333 82.8333 51.3 83.3C55.5667 83.7667 58.9667 83.6 61.5 82.8C64.0333 81.9333 65.3 80.5 65.3 78.5C65.3 77.1 64.6 75.9667 63.2 75.1C61.8 74.1667 59.9667 73.3333 57.7 72.6C55.5 71.8667 53.1667 71.0333 50.7 70.1C48.2333 69.1 45.8667 67.8667 43.6 66.4C41.4 64.8667 39.6 62.9 38.2 60.5C36.8 58.0333 36.1 54.9667 36.1 51.3C36.1 46.7667 37.3 42.9333 39.7 39.8C42.1 36.6667 45.3333 34.3 49.4 32.7C53.5333 31.1 58.2 30.3 63.4 30.3C68.6667 30.3 74.1 31.1 79.7 32.7C79.7 35.5667 79.7 38.4333 79.7 41.3C79.7 44.1667 79.7 47.0333 79.7 49.9C75.0333 47.9 70.7333 46.7 66.8 46.3C62.9333 45.8333 59.8333 46.0333 57.5 46.9C55.1667 47.7 54 49.0333 54 50.9C54 52.2333 54.7 53.3333 56.1 54.2C57.5 55.0667 59.3 55.8667 61.5 56.6C63.7667 57.2667 66.1333 58.1 68.6 59.1C71.0667 60.0333 73.4 61.3 75.6 62.9C77.8667 64.4333 79.7 66.4667 81.1 69C82.5 71.4667 83.2 74.6333 83.2 78.5Z" fill="black"/>
<g clip-path="url(#clip0_266_6294)">
<path d="M13.6001 43.6C13.2001 43 13.4001 42.6 13.5001 42.3C13.9001 40.4 14.3001 38.5 14.7001 36.6C15.0001 35.4 14.6001 34.6 13.7001 33.9C9.40008 30 5.20008 26.1 0.900081 22.3C0.500081 21.9 -0.0999191 21.6 8.08649e-05 21C0.200081 20.4 0.900081 20.6 1.40008 20.6C7.20008 20 13.0001 19.3 18.8001 18.8C19.8001 18.7 20.4001 18.3 20.7001 17.4C22.8001 12.6 24.9001 7.9 27.0001 3.1C27.3001 2.3 27.7001 1.5 28.1001 0.7C28.3001 0.4 28.4001 0 28.9001 0C29.3001 0 29.4001 0.4 29.6001 0.7C30.9001 3.6 32.2001 6.5 33.5001 9.4C34.7001 12 35.9001 14.7 37.0001 17.3C37.4001 18.2 38.0001 18.7 38.9001 18.7C41.1001 18.9 43.4001 19.2 45.6001 19.4C46.0001 19.4 46.5001 19.4 46.9001 20C34.4001 25.9 22.4001 32.4 13.6001 43.6Z" fill="url(#paint0_linear_266_6294)"/>
<path d="M86.5999 13.4C85.0999 14 83.6999 13.9 82.3999 14.1C64.1999 17 47.5999 23.7 32.5999 34.5C28.3999 37.5 24.5999 41.1 21.7999 45.4C20.3999 47.5 19.3999 49.8 19.4999 52.5C19.5999 55.5 21.2999 57.4 23.6999 58.7C27.0999 60.6 30.8999 61.1 34.6999 61.1C35.4999 61.1 36.2999 61.1 37.0999 61.2C36.2999 61.7 35.2999 61.7 34.3999 61.8C30.0999 62.3 25.6999 62.3 21.3999 61.4C19.4999 61 17.6999 60.5 15.9999 59.5C12.2999 57.4 10.8999 53.7 12.2999 49.6C13.2999 46.6 14.9999 44.1 17.0999 41.8C22.1999 36.2 28.1999 31.9 34.7999 28.1C46.8999 21.2 59.6999 16.4 73.3999 14.1C77.6999 13.5 81.8999 13.1 86.5999 13.4Z" fill="url(#paint1_linear_266_6294)"/>
<path d="M72.9001 18.2C70.6001 19 68.2001 19.8 65.9001 20.6C59.2001 23.1 52.8001 26.2 46.8001 29.9C41.7001 33 36.9001 36.6 32.8001 41C30.7001 43.3 28.9001 45.8 27.8001 48.8C26.4001 52.6 27.5001 55.8 31.0001 57.9C31.6001 58.3 32.3001 58.7 32.9001 59.2C29.4001 58.7 26.1001 58 24.1001 54.6C22.9001 52.6 23.0001 50.5 23.7001 48.4C24.7001 45.5 26.5001 43.1 28.6001 40.8C32.5001 36.6 37.1001 33.3 41.9001 30.4C48.9001 26.2 56.2001 22.9 64.0001 20.3C66.8001 19.5 69.8001 18.5 72.9001 18.2Z" fill="url(#paint2_linear_266_6294)"/>
</g>
<defs>
<linearGradient id="paint0_linear_266_6294" x1="23.4445" y1="5.33502" x2="23.4445" y2="43.6" gradientUnits="userSpaceOnUse">
<stop stop-color="#1D192B"/>
<stop offset="1" stop-color="#B2B2B2"/>
</linearGradient>
<linearGradient id="paint1_linear_266_6294" x1="49.1834" y1="19.2739" x2="49.1834" y2="62.1359" gradientUnits="userSpaceOnUse">
<stop stop-color="#1D192B"/>
<stop offset="1" stop-color="#B2B2B2"/>
</linearGradient>
<linearGradient id="paint2_linear_266_6294" x1="48.0416" y1="23.2169" x2="48.0416" y2="59.2" gradientUnits="userSpaceOnUse">
<stop stop-color="#1D192B"/>
<stop offset="1" stop-color="#B2B2B2"/>
</linearGradient>
<clipPath id="clip0_266_6294">
<rect width="86.6" height="62.1" fill="white"/>
</clipPath>
</defs>
</svg>
