<svg width="23" height="23" viewBox="0 0 23 23" fill="none" xmlns="http://www.w3.org/2000/svg">
<path fill-rule="evenodd" clip-rule="evenodd" d="M12.0843 22.0958L12.0722 22.0978L11.9941 22.1331L11.9721 22.1372L11.9567 22.1331L11.8786 22.0978C11.8669 22.0945 11.8581 22.0962 11.8522 22.1029L11.8478 22.113L11.8291 22.5446L11.8346 22.5648L11.8456 22.5779L11.96 22.6525L11.9765 22.6566L11.9897 22.6525L12.1041 22.5779L12.1173 22.5618L12.1217 22.5446L12.103 22.114C12.1001 22.1032 12.0939 22.0972 12.0843 22.0958ZM12.3758 21.9819L12.3615 21.9839L12.158 22.0777L12.147 22.0878L12.1437 22.0988L12.1635 22.5325L12.169 22.5446L12.1778 22.5517L12.3989 22.6455C12.4129 22.6488 12.4235 22.6461 12.4308 22.6374L12.4352 22.6233L12.3978 22.004C12.3942 21.9919 12.3868 21.9846 12.3758 21.9819ZM11.5893 21.9839C11.5845 21.9812 11.5787 21.9803 11.5732 21.9814C11.5676 21.9826 11.5628 21.9856 11.5596 21.9899L11.553 22.004L11.5156 22.6233C11.5164 22.6354 11.5226 22.6434 11.5343 22.6475L11.5508 22.6455L11.7719 22.5517L11.7829 22.5436L11.7873 22.5325L11.806 22.0988L11.8027 22.0867L11.7917 22.0767L11.5893 21.9839Z" fill="white"/>
<path fill-rule="evenodd" clip-rule="evenodd" d="M11.4316 0.656494C5.35634 0.656494 0.431641 5.17158 0.431641 10.7416C0.431641 12.6476 1.00914 14.4327 2.01344 15.9535L1.03224 19.0113C0.975904 19.1869 0.972197 19.3731 1.02151 19.5505C1.07082 19.7278 1.17133 19.8897 1.31248 20.0191C1.45362 20.1485 1.63018 20.2406 1.8236 20.2858C2.01702 20.331 2.22015 20.3276 2.41164 20.276L5.74684 19.3764C7.46145 20.3274 9.42771 20.829 11.4316 20.8266C17.5069 20.8266 22.4316 16.3115 22.4316 10.7416C22.4316 5.17158 17.5069 0.656494 11.4316 0.656494ZM8.94344 13.0238C11.1687 15.063 13.2928 15.3323 14.043 15.3575C15.1837 15.3958 16.2947 14.5971 16.727 13.6703C16.7812 13.5549 16.8007 13.4283 16.7837 13.3037C16.7667 13.1791 16.7137 13.0609 16.6302 12.9613C16.0274 12.2553 15.2123 11.7481 14.4159 11.2438C14.2498 11.1381 14.0453 11.0957 13.8457 11.1254C13.6461 11.1551 13.4668 11.2547 13.3456 11.4031L12.6856 12.3259C12.6508 12.3753 12.5967 12.4108 12.5344 12.425C12.4721 12.4392 12.4062 12.4312 12.3501 12.4026C11.9024 12.1676 11.2501 11.7682 10.7815 11.3386C10.3129 10.909 9.90374 10.3382 9.67384 9.95392C9.64603 9.90496 9.63817 9.84852 9.65168 9.79473C9.66519 9.74093 9.69918 9.69332 9.74754 9.66045L10.7639 8.96861C10.9094 8.85323 11.0033 8.69269 11.0277 8.51776C11.052 8.34282 11.0051 8.1658 10.8959 8.02061C10.4031 7.35903 9.82894 6.51794 8.99624 5.96023C8.88855 5.88929 8.7627 5.84505 8.63088 5.8318C8.49906 5.81855 8.36574 5.83674 8.24384 5.88459C7.23184 6.28195 6.35624 7.30054 6.39804 8.34838C6.42554 9.03618 6.71924 10.9836 8.94344 13.0238Z" fill="white"/>
</svg>
