<svg width="300" height="75" viewBox="0 0 300 75" fill="none" xmlns="http://www.w3.org/2000/svg">
<path d="M38.9853 0H284.985C293.27 0 299.985 6.71573 299.985 15V52C299.985 60.2843 293.27 67 284.985 67H38.9853V0Z" fill="#EFF5F5"/>
<path d="M84.3049 25.05C86.1383 25.05 87.7466 25.4083 89.1299 26.125C90.5299 26.8417 91.6049 27.8667 92.3549 29.2C93.1216 30.5167 93.5049 32.05 93.5049 33.8C93.5049 35.55 93.1216 37.0833 92.3549 38.4C91.6049 39.7 90.5299 40.7083 89.1299 41.425C87.7466 42.1417 86.1383 42.5 84.3049 42.5H78.2049V25.05H84.3049ZM84.1799 39.525C86.0133 39.525 87.4299 39.025 88.4299 38.025C89.4299 37.025 89.9299 35.6167 89.9299 33.8C89.9299 31.9833 89.4299 30.5667 88.4299 29.55C87.4299 28.5167 86.0133 28 84.1799 28H81.7049V39.525H84.1799ZM102.275 42.725C100.942 42.725 99.7415 42.4333 98.6748 41.85C97.6082 41.25 96.7665 40.4083 96.1498 39.325C95.5498 38.2417 95.2498 36.9917 95.2498 35.575C95.2498 34.1583 95.5582 32.9083 96.1748 31.825C96.8082 30.7417 97.6665 29.9083 98.7498 29.325C99.8332 28.725 101.042 28.425 102.375 28.425C103.708 28.425 104.917 28.725 106 29.325C107.083 29.9083 107.933 30.7417 108.55 31.825C109.183 32.9083 109.5 34.1583 109.5 35.575C109.5 36.9917 109.175 38.2417 108.525 39.325C107.892 40.4083 107.025 41.25 105.925 41.85C104.842 42.4333 103.625 42.725 102.275 42.725ZM102.275 39.675C102.908 39.675 103.5 39.525 104.05 39.225C104.617 38.9083 105.067 38.4417 105.4 37.825C105.733 37.2083 105.9 36.4583 105.9 35.575C105.9 34.2583 105.55 33.25 104.85 32.55C104.167 31.8333 103.325 31.475 102.325 31.475C101.325 31.475 100.483 31.8333 99.7998 32.55C99.1332 33.25 98.7998 34.2583 98.7998 35.575C98.7998 36.8917 99.1248 37.9083 99.7748 38.625C100.442 39.325 101.275 39.675 102.275 39.675ZM131.267 28.65L127.217 42.5H123.442L120.917 32.825L118.392 42.5H114.592L110.517 28.65H114.067L116.517 39.2L119.167 28.65H122.867L125.467 39.175L127.917 28.65H131.267ZM140.836 28.45C142.486 28.45 143.819 28.975 144.836 30.025C145.853 31.0583 146.361 32.5083 146.361 34.375V42.5H142.861V34.85C142.861 33.75 142.586 32.9083 142.036 32.325C141.486 31.725 140.736 31.425 139.786 31.425C138.819 31.425 138.053 31.725 137.486 32.325C136.936 32.9083 136.661 33.75 136.661 34.85V42.5H133.161V28.65H136.661V30.375C137.128 29.775 137.719 29.3083 138.436 28.975C139.169 28.625 139.969 28.45 140.836 28.45ZM153.189 24V42.5H149.689V24H153.189ZM162.797 42.725C161.464 42.725 160.264 42.4333 159.197 41.85C158.131 41.25 157.289 40.4083 156.672 39.325C156.072 38.2417 155.772 36.9917 155.772 35.575C155.772 34.1583 156.081 32.9083 156.697 31.825C157.331 30.7417 158.189 29.9083 159.272 29.325C160.356 28.725 161.564 28.425 162.897 28.425C164.231 28.425 165.439 28.725 166.522 29.325C167.606 29.9083 168.456 30.7417 169.072 31.825C169.706 32.9083 170.022 34.1583 170.022 35.575C170.022 36.9917 169.697 38.2417 169.047 39.325C168.414 40.4083 167.547 41.25 166.447 41.85C165.364 42.4333 164.147 42.725 162.797 42.725ZM162.797 39.675C163.431 39.675 164.022 39.525 164.572 39.225C165.139 38.9083 165.589 38.4417 165.922 37.825C166.256 37.2083 166.422 36.4583 166.422 35.575C166.422 34.2583 166.072 33.25 165.372 32.55C164.689 31.8333 163.847 31.475 162.847 31.475C161.847 31.475 161.006 31.8333 160.322 32.55C159.656 33.25 159.322 34.2583 159.322 35.575C159.322 36.8917 159.647 37.9083 160.297 38.625C160.964 39.325 161.797 39.675 162.797 39.675ZM171.69 35.525C171.69 34.125 171.965 32.8833 172.515 31.8C173.081 30.7167 173.84 29.8833 174.79 29.3C175.756 28.7167 176.831 28.425 178.015 28.425C179.048 28.425 179.948 28.6333 180.715 29.05C181.498 29.4667 182.123 29.9917 182.59 30.625V28.65H186.115V42.5H182.59V40.475C182.14 41.125 181.515 41.6667 180.715 42.1C179.931 42.5167 179.023 42.725 177.99 42.725C176.823 42.725 175.756 42.425 174.79 41.825C173.84 41.225 173.081 40.3833 172.515 39.3C171.965 38.2 171.69 36.9417 171.69 35.525ZM182.59 35.575C182.59 34.725 182.423 34 182.09 33.4C181.756 32.7833 181.306 32.3167 180.74 32C180.173 31.6667 179.565 31.5 178.915 31.5C178.265 31.5 177.665 31.6583 177.115 31.975C176.565 32.2917 176.115 32.7583 175.765 33.375C175.431 33.975 175.265 34.6917 175.265 35.525C175.265 36.3583 175.431 37.0917 175.765 37.725C176.115 38.3417 176.565 38.8167 177.115 39.15C177.681 39.4833 178.281 39.65 178.915 39.65C179.565 39.65 180.173 39.4917 180.74 39.175C181.306 38.8417 181.756 38.375 182.09 37.775C182.423 37.1583 182.59 36.425 182.59 35.575ZM188.633 35.525C188.633 34.125 188.908 32.8833 189.458 31.8C190.025 30.7167 190.791 29.8833 191.758 29.3C192.725 28.7167 193.8 28.425 194.983 28.425C195.883 28.425 196.741 28.625 197.558 29.025C198.375 29.4083 199.025 29.925 199.508 30.575V24H203.058V42.5H199.508V40.45C199.075 41.1333 198.466 41.6833 197.683 42.1C196.9 42.5167 195.991 42.725 194.958 42.725C193.791 42.725 192.725 42.425 191.758 41.825C190.791 41.225 190.025 40.3833 189.458 39.3C188.908 38.2 188.633 36.9417 188.633 35.525ZM199.533 35.575C199.533 34.725 199.366 34 199.033 33.4C198.7 32.7833 198.25 32.3167 197.683 32C197.116 31.6667 196.508 31.5 195.858 31.5C195.208 31.5 194.608 31.6583 194.058 31.975C193.508 32.2917 193.058 32.7583 192.708 33.375C192.375 33.975 192.208 34.6917 192.208 35.525C192.208 36.3583 192.375 37.0917 192.708 37.725C193.058 38.3417 193.508 38.8167 194.058 39.15C194.625 39.4833 195.225 39.65 195.858 39.65C196.508 39.65 197.116 39.4917 197.683 39.175C198.25 38.8417 198.7 38.375 199.033 37.775C199.366 37.1583 199.533 36.425 199.533 35.575ZM223.133 39.175H216.183L215.033 42.5H211.358L217.633 25.025H221.708L227.983 42.5H224.283L223.133 39.175ZM222.183 36.375L219.658 29.075L217.133 36.375H222.183ZM233.829 30.65C234.279 30.0167 234.896 29.4917 235.679 29.075C236.479 28.6417 237.387 28.425 238.404 28.425C239.587 28.425 240.654 28.7167 241.604 29.3C242.571 29.8833 243.329 30.7167 243.879 31.8C244.446 32.8667 244.729 34.1083 244.729 35.525C244.729 36.9417 244.446 38.2 243.879 39.3C243.329 40.3833 242.571 41.225 241.604 41.825C240.654 42.425 239.587 42.725 238.404 42.725C237.387 42.725 236.487 42.5167 235.704 42.1C234.937 41.6833 234.312 41.1583 233.829 40.525V49.1H230.329V28.65H233.829V30.65ZM241.154 35.525C241.154 34.6917 240.979 33.975 240.629 33.375C240.296 32.7583 239.846 32.2917 239.279 31.975C238.729 31.6583 238.129 31.5 237.479 31.5C236.846 31.5 236.246 31.6667 235.679 32C235.129 32.3167 234.679 32.7833 234.329 33.4C233.996 34.0167 233.829 34.7417 233.829 35.575C233.829 36.4083 233.996 37.1333 234.329 37.75C234.679 38.3667 235.129 38.8417 235.679 39.175C236.246 39.4917 236.846 39.65 237.479 39.65C238.129 39.65 238.729 39.4833 239.279 39.15C239.846 38.8167 240.296 38.3417 240.629 37.725C240.979 37.1083 241.154 36.375 241.154 35.525ZM250.772 30.65C251.222 30.0167 251.839 29.4917 252.622 29.075C253.422 28.6417 254.331 28.425 255.347 28.425C256.531 28.425 257.597 28.7167 258.547 29.3C259.514 29.8833 260.272 30.7167 260.822 31.8C261.389 32.8667 261.672 34.1083 261.672 35.525C261.672 36.9417 261.389 38.2 260.822 39.3C260.272 40.3833 259.514 41.225 258.547 41.825C257.597 42.425 256.531 42.725 255.347 42.725C254.331 42.725 253.431 42.5167 252.647 42.1C251.881 41.6833 251.256 41.1583 250.772 40.525V49.1H247.272V28.65H250.772V30.65ZM258.097 35.525C258.097 34.6917 257.922 33.975 257.572 33.375C257.239 32.7583 256.789 32.2917 256.222 31.975C255.672 31.6583 255.072 31.5 254.422 31.5C253.789 31.5 253.189 31.6667 252.622 32C252.072 32.3167 251.622 32.7833 251.272 33.4C250.939 34.0167 250.772 34.7417 250.772 35.575C250.772 36.4083 250.939 37.1333 251.272 37.75C251.622 38.3667 252.072 38.8417 252.622 39.175C253.189 39.4917 253.789 39.65 254.422 39.65C255.072 39.65 255.672 39.4833 256.222 39.15C256.789 38.8167 257.239 38.3417 257.572 37.725C257.922 37.1083 258.097 36.375 258.097 35.525Z" fill="#478767"/>
<g filter="url(#filter0_d_540_3833)">
<circle cx="37.5" cy="33.5" r="33.5" fill="#478767"/>
<circle cx="37.5" cy="33.5" r="32.5" stroke="white" stroke-width="2"/>
</g>
<path d="M37.5 41.75L28.4375 31.4375L30.975 28.4469L35.6875 33.8094V17H39.3125V33.8094L44.025 28.4469L46.5625 31.4375L37.5 41.75ZM26.625 50C25.6281 50 24.775 49.5964 24.0657 48.7893C23.3565 47.9822 23.0012 47.0107 23 45.875V39.6875H26.625V45.875H48.375V39.6875H52V45.875C52 47.0094 51.6454 47.9808 50.9361 48.7893C50.2268 49.5978 49.3731 50.0014 48.375 50H26.625Z" fill="#EFF5F5"/>
<defs>
<filter id="filter0_d_540_3833" x="0" y="0" width="75" height="75" filterUnits="userSpaceOnUse" color-interpolation-filters="sRGB">
<feFlood flood-opacity="0" result="BackgroundImageFix"/>
<feColorMatrix in="SourceAlpha" type="matrix" values="0 0 0 0 0 0 0 0 0 0 0 0 0 0 0 0 0 0 127 0" result="hardAlpha"/>
<feOffset dy="4"/>
<feGaussianBlur stdDeviation="2"/>
<feComposite in2="hardAlpha" operator="out"/>
<feColorMatrix type="matrix" values="0 0 0 0 0 0 0 0 0 0 0 0 0 0 0 0 0 0 0.25 0"/>
<feBlend mode="normal" in2="BackgroundImageFix" result="effect1_dropShadow_540_3833"/>
<feBlend mode="normal" in="SourceGraphic" in2="effect1_dropShadow_540_3833" result="shape"/>
</filter>
</defs>
</svg>
