<svg width="26" height="34" viewBox="0 0 26 34" fill="none" xmlns="http://www.w3.org/2000/svg">
<path d="M13 25.5C12.0662 25.5002 11.1666 25.1427 10.4804 24.4986C9.79411 23.8545 9.37156 22.9711 9.29686 22.0244C6.81977 21.1327 4.73209 19.3795 3.40233 17.0744C2.07257 14.7692 1.58623 12.0604 2.02916 9.42606C2.4721 6.7917 3.81582 4.4012 5.82315 2.67652C7.83047 0.951844 10.3723 0.00389196 13 1.19178e-07C15.7948 -0.000411876 18.4877 1.06739 20.5448 2.99167C22.6018 4.91595 23.8728 7.5562 24.1057 10.3889C24.1135 10.5118 24.096 10.6349 24.0545 10.7506C24.0129 10.8662 23.9482 10.9718 23.8643 11.0606C23.7805 11.1494 23.6794 11.2195 23.5675 11.2665C23.4556 11.3134 23.3353 11.3362 23.2143 11.3333C22.9655 11.327 22.728 11.2268 22.5478 11.0523C22.3676 10.8777 22.2576 10.6413 22.2393 10.3889C22.0739 8.7188 21.4739 7.12372 20.501 5.76786C19.5281 4.412 18.2175 3.34435 16.7041 2.67483C15.1908 2.00531 13.5293 1.75811 11.8908 1.95867C10.2523 2.15924 8.69594 2.80032 7.38197 3.81593C6.068 4.83154 5.0439 6.18497 4.41508 7.73689C3.78626 9.28881 3.57546 10.9831 3.80437 12.6455C4.03328 14.3078 4.69364 15.878 5.71745 17.1945C6.74127 18.511 8.09155 19.5262 9.62929 20.1356C9.90909 19.5206 10.3463 18.9936 10.8953 18.6096C11.4442 18.2256 12.0845 17.9988 12.7492 17.9531C13.4138 17.9073 14.0784 18.0442 14.6732 18.3494C15.2679 18.6546 15.7711 19.1169 16.1298 19.6879C16.4886 20.2588 16.6897 20.9174 16.7123 21.5946C16.7348 22.2718 16.5778 22.9427 16.2578 23.537C15.9377 24.1312 15.4665 24.627 14.8933 24.9724C14.3201 25.3178 13.6662 25.5 13 25.5ZM3.731 20.7778H3.9C4.99638 21.8717 6.27466 22.7593 7.67557 23.3996C8.08728 24.7812 9.00193 25.9509 10.2328 26.6698C11.4637 27.3888 12.9179 27.6029 14.2987 27.2683C15.6795 26.9337 16.8826 26.0757 17.6625 24.8695C18.4424 23.6633 18.7403 22.1998 18.4953 20.7778H22.2857C23.2708 20.7778 24.2155 21.1758 24.9121 21.8843C25.6087 22.5927 26 23.5536 26 24.5556C26 27.7497 24.453 30.158 22.035 31.7277C19.6541 33.2709 16.445 34 13 34C9.555 34 6.34586 33.2709 3.965 31.7277C1.547 30.1599 0 27.7478 0 24.5556C0 22.4532 1.677 20.7778 3.731 20.7778ZM20.4286 11.3333C20.429 12.6114 20.1106 13.8687 19.5032 14.9876C18.8959 16.1065 18.0194 17.0504 16.9557 17.731C16.4377 17.2 15.8215 16.7786 15.1426 16.491C14.4636 16.2035 13.7354 16.0555 13 16.0556C12.2646 16.0555 11.5364 16.2035 10.8574 16.491C10.1785 16.7786 9.56228 17.2 9.04428 17.731C7.63364 16.8287 6.56223 15.4702 6.00229 13.8739C5.71663 13.0584 5.57089 12.199 5.57143 11.3333C5.57143 9.32948 6.35408 7.40769 7.74721 5.99075C9.14033 4.57381 11.0298 3.77778 13 3.77778C14.9702 3.77778 16.8597 4.57381 18.2528 5.99075C19.6459 7.40769 20.4286 9.32948 20.4286 11.3333Z" fill="#090909"/>
</svg>
