<svg width="94" height="75" viewBox="0 0 94 75" fill="none" xmlns="http://www.w3.org/2000/svg">
<path d="M6.02189 1.02528C4.64127 -0.337029 2.40877 -0.337029 1.02814 1.02528C-0.35248 2.38758 -0.337793 4.62879 1.02814 6.00574L11.6031 16.5526C12.9838 17.9296 15.2163 17.9296 16.5822 16.5526C17.9481 15.1757 17.9628 12.9491 16.5822 11.5868L6.02189 1.02528ZM87.9781 1.02528L77.4031 11.5722C76.0225 12.9491 76.0225 15.1757 77.4031 16.538C78.7838 17.9003 81.0163 17.9149 82.3822 16.538L92.9572 5.9911C94.3378 4.61414 94.3378 2.38758 92.9572 1.02528C91.5766 -0.337029 89.3441 -0.351677 87.9781 1.02528ZM1.02814 73.9745C2.40877 75.3514 4.64127 75.3514 6.00721 73.9745L16.5822 63.4276C17.9628 62.0507 17.9628 59.8241 16.5822 58.4618C15.2016 57.0995 12.9691 57.0848 11.6031 58.4618L1.02814 68.994C-0.35248 70.371 -0.35248 72.5975 1.02814 73.9598V73.9745ZM87.9781 73.9745C89.3588 75.3514 91.5913 75.3514 92.9572 73.9745C94.3231 72.5975 94.3378 70.371 92.9572 69.0087L82.3822 58.4618C81.0016 57.0848 78.7691 57.0848 77.4031 58.4618C76.0372 59.8388 76.0225 62.0653 77.4031 63.4276L87.9781 73.9745ZM47 37.4999C49.493 37.4999 51.884 36.5122 53.6468 34.754C55.4097 32.9959 56.4 30.6113 56.4 28.1249C56.4 25.6385 55.4097 23.2539 53.6468 21.4958C51.884 19.7376 49.493 18.7499 47 18.7499C44.507 18.7499 42.1161 19.7376 40.3532 21.4958C38.5904 23.2539 37.6 25.6385 37.6 28.1249C37.6 30.6113 38.5904 32.9959 40.3532 34.754C42.1161 36.5122 44.507 37.4999 47 37.4999ZM31.1522 49.2186C30.7556 50.3173 30.55 51.5038 30.55 52.7343C30.55 54.6825 32.1216 56.2499 34.075 56.2499H59.925C61.8785 56.2499 63.45 54.6825 63.45 52.7343C63.45 51.5038 63.2444 50.3173 62.8478 49.2186C62.7744 49.0136 62.701 48.8231 62.6128 48.6327C61.2322 45.3661 58.236 42.9345 54.6375 42.3339C54.0647 42.2313 53.4772 42.1874 52.875 42.1874H41.125C40.5228 42.1874 39.9353 42.2313 39.3625 42.3339C39.245 42.3485 39.1128 42.3778 38.9953 42.4071C35.3381 43.1542 32.3713 45.7763 31.1522 49.2186ZM25.8206 32.8124C26.7465 32.8124 27.6632 32.6305 28.5186 32.2772C29.3739 31.9238 30.1511 31.4059 30.8057 30.753C31.4604 30.1001 31.9797 29.3249 32.334 28.4719C32.6883 27.6188 32.8706 26.7045 32.8706 25.7811C32.8706 24.8578 32.6883 23.9435 32.334 23.0904C31.9797 22.2373 31.4604 21.4622 30.8057 20.8093C30.1511 20.1564 29.3739 19.6385 28.5186 19.2851C27.6632 18.9318 26.7465 18.7499 25.8206 18.7499C24.8948 18.7499 23.9781 18.9318 23.1227 19.2851C22.2674 19.6385 21.4902 20.1564 20.8355 20.8093C20.1809 21.4622 19.6616 22.2373 19.3073 23.0904C18.953 23.9435 18.7706 24.8578 18.7706 25.7811C18.7706 26.7045 18.953 27.6188 19.3073 28.4719C19.6616 29.3249 20.1809 30.1001 20.8355 30.753C21.4902 31.4059 22.2674 31.9238 23.1227 32.2772C23.9781 32.6305 24.8948 32.8124 25.8206 32.8124ZM21.9285 37.4999C17.6103 37.4999 14.1 41.0009 14.1 45.3075C14.1 47.4608 15.8478 49.2186 18.0216 49.2186H26.2613C27.4363 44.2235 31.0788 40.1805 35.8375 38.4374C34.736 37.8368 33.4581 37.4999 32.1216 37.4999H21.9431H21.9285ZM75.9784 49.2186C78.1375 49.2186 79.9 47.4755 79.9 45.3075C79.9 40.9862 76.3897 37.4999 72.0716 37.4999H61.8931C60.5419 37.4999 59.2788 37.8368 58.1772 38.4374C62.936 40.1805 66.5785 44.2235 67.7534 49.2186H75.9931H75.9784ZM68.15 32.8124C69.0758 32.8124 69.9926 32.6305 70.8479 32.2772C71.7033 31.9238 72.4805 31.4059 73.1351 30.753C73.7898 30.1001 74.3091 29.3249 74.6634 28.4719C75.0177 27.6188 75.2 26.7045 75.2 25.7811C75.2 24.8578 75.0177 23.9435 74.6634 23.0904C74.3091 22.2373 73.7898 21.4622 73.1351 20.8093C72.4805 20.1564 71.7033 19.6385 70.8479 19.2851C69.9926 18.9318 69.0758 18.7499 68.15 18.7499C67.2242 18.7499 66.3074 18.9318 65.4521 19.2851C64.5967 19.6385 63.8196 20.1564 63.1649 20.8093C62.5103 21.4622 61.991 22.2373 61.6367 23.0904C61.2824 23.9435 61.1 24.8578 61.1 25.7811C61.1 26.7045 61.2824 27.6188 61.6367 28.4719C61.991 29.3249 62.5103 30.1001 63.1649 30.753C63.8196 31.4059 64.5967 31.9238 65.4521 32.2772C66.3074 32.6305 67.2242 32.8124 68.15 32.8124Z" fill="#075358"/>
</svg>
