<svg width="60" height="60" viewBox="0 0 60 60" fill="none" xmlns="http://www.w3.org/2000/svg">
<circle cx="30" cy="30" r="30" fill="#FF0000"/>
<path d="M40.4833 44.9251C39.1905 44.9184 37.8864 44.4136 36.9668 43.4931L29.9963 36.5226L23.0258 43.4931C21.2089 45.31 18.2685 45.4494 16.4736 43.8059C14.5675 42.0606 14.5027 38.9539 16.325 37.1316L23.4651 29.991C23.4651 29.991 16.3301 22.856 16.325 22.8508C14.4818 21.0077 14.5834 17.8667 16.5176 16.1371C18.3409 14.5055 21.1823 14.6463 22.9891 16.4531L29.9963 23.4607L37.0035 16.4531C38.8084 14.6463 41.6507 14.5055 43.475 16.1371C45.4064 17.8645 45.4916 21.0273 43.6676 22.8513L36.5275 29.9919C36.5275 29.9919 43.6654 37.1294 43.6676 37.1316C45.5034 38.9672 45.4312 42.056 43.5191 43.8058C42.6788 44.5748 41.5851 44.9309 40.4833 44.9251ZM29.9963 34.2848C30.2488 34.2842 30.5027 34.3729 30.686 34.5562L38.2948 42.165C39.411 43.2812 41.1857 43.3949 42.2496 42.4209C43.3783 41.3877 43.4184 39.5385 42.3396 38.4596C42.3396 38.4596 34.5686 30.6882 34.5611 30.6807C34.1783 30.2979 34.1872 29.6511 34.5831 29.2811C34.5831 29.2811 42.333 21.5293 42.3396 21.5227C43.444 20.418 43.3814 18.5736 42.2222 17.5367C41.161 16.5875 39.4165 16.6984 38.3315 17.7812L30.686 25.4271C30.3265 25.7853 29.6991 25.7958 29.3286 25.4482L21.6611 17.7812C20.5779 16.6985 18.8326 16.5875 17.7705 17.5367C16.6324 18.5538 16.5747 20.4449 17.653 21.5223C17.653 21.5223 25.4165 29.2871 25.4315 29.3022C25.7958 29.6665 25.8023 30.3346 25.4095 30.7018C25.4095 30.7018 17.6616 38.4511 17.653 38.4596C16.5678 39.5451 16.6174 41.3896 17.7429 42.4209C18.8078 43.3949 20.5834 43.2803 21.6978 42.165C21.6978 42.165 29.3006 34.5622 29.3066 34.5562C29.485 34.3777 29.74 34.2854 29.9963 34.2848Z" fill="white"/>
</svg>
