<svg width="78" height="50" viewBox="0 0 78 50" fill="none" xmlns="http://www.w3.org/2000/svg">
<path d="M25.417 0.3125C18.9275 0.3125 12.7038 2.89045 8.11497 7.47923C3.52619 12.068 0.948242 18.2917 0.948242 24.7812C0.948242 31.2708 3.52619 37.4945 8.11497 42.0833C12.7038 46.672 18.9275 49.25 25.417 49.25H52.648C59.1375 49.25 65.3612 46.672 69.95 42.0833C74.5388 37.4945 77.1167 31.2708 77.1167 24.7812C77.1167 18.2917 74.5388 12.068 69.95 7.47923C65.3612 2.89045 59.1375 0.3125 52.648 0.3125H25.417ZM14.5529 24.7812C14.5529 24.0602 14.8393 23.3687 15.3492 22.8588C15.859 22.3489 16.5506 22.0625 17.2716 22.0625H22.7091V16.625C22.7091 15.9039 22.9956 15.2124 23.5054 14.7026C24.0153 14.1927 24.7068 13.9062 25.4279 13.9062C26.1489 13.9062 26.8405 14.1927 27.3503 14.7026C27.8602 15.2124 28.1466 15.9039 28.1466 16.625V22.0625H33.5841C34.3052 22.0625 34.9967 22.3489 35.5066 22.8588C36.0164 23.3687 36.3029 24.0602 36.3029 24.7812C36.3029 25.5023 36.0164 26.1938 35.5066 26.7037C34.9967 27.2136 34.3052 27.5 33.5841 27.5H28.1466V32.9375C28.1466 33.6586 27.8602 34.3501 27.3503 34.8599C26.8405 35.3698 26.1489 35.6562 25.4279 35.6562C24.7068 35.6562 24.0153 35.3698 23.5054 34.8599C22.9956 34.3501 22.7091 33.6586 22.7091 32.9375V27.5H17.2716C16.5506 27.5 15.859 27.2136 15.3492 26.7037C14.8393 26.1938 14.5529 25.5023 14.5529 24.7812ZM55.3124 32.9375C55.3124 34.3796 54.7395 35.7627 53.7198 36.7824C52.7 37.8021 51.317 38.375 49.8749 38.375C48.4328 38.375 47.0497 37.8021 46.03 36.7824C45.0102 35.7627 44.4374 34.3796 44.4374 32.9375C44.4374 31.4954 45.0102 30.1123 46.03 29.0926C47.0497 28.0729 48.4328 27.5 49.8749 27.5C51.317 27.5 52.7 28.0729 53.7198 29.0926C54.7395 30.1123 55.3124 31.4954 55.3124 32.9375ZM55.3124 22.0625C53.8703 22.0625 52.4872 21.4896 51.4675 20.4699C50.4477 19.4502 49.8749 18.0671 49.8749 16.625C49.8749 15.1829 50.4477 13.7998 51.4675 12.7801C52.4872 11.7604 53.8703 11.1875 55.3124 11.1875C56.7545 11.1875 58.1375 11.7604 59.1573 12.7801C60.177 13.7998 60.7499 15.1829 60.7499 16.625C60.7499 18.0671 60.177 19.4502 59.1573 20.4699C58.1375 21.4896 56.7545 22.0625 55.3124 22.0625Z" fill="#075358"/>
</svg>
