<svg width="61" height="60" viewBox="0 0 61 60" fill="none" xmlns="http://www.w3.org/2000/svg">
<path d="M30.8698 3.53786e-06C28.8576 0.00250326 26.903 0.192482 25.006 0.56994C24.5252 0.674178 24.1045 0.962342 23.8344 1.37255C23.5642 1.78276 23.4661 2.28229 23.561 2.76387C23.656 3.24545 23.9365 3.67068 24.3423 3.94822C24.7481 4.22577 25.2469 4.3335 25.7314 4.24828C29.1237 3.57448 32.6159 3.57448 36.0082 4.24828C36.4867 4.32096 36.9749 4.20668 37.3711 3.92923C37.7672 3.65178 38.0408 3.23257 38.1348 2.75892C38.2288 2.28527 38.1359 1.79371 37.8756 1.38663C37.6153 0.979552 37.2076 0.688352 36.7374 0.57369C34.8051 0.191202 32.8398 -0.000950875 30.8698 3.53786e-06ZM47.578 5.05444C47.1643 4.80376 46.6696 4.72196 46.197 4.82608C45.7243 4.93019 45.3102 5.2122 45.0408 5.61335C44.7714 6.0145 44.6676 6.50387 44.7509 6.9795C44.8342 7.45513 45.0983 7.88036 45.4881 8.1666C48.3627 10.0832 50.8304 12.5461 52.7502 15.4145C52.8854 15.6238 53.061 15.8042 53.2667 15.945C53.4725 16.0859 53.7043 16.1845 53.9487 16.235C54.1931 16.2856 54.4451 16.2871 54.69 16.2394C54.935 16.1917 55.168 16.0959 55.3754 15.9575C55.5828 15.819 55.7605 15.6408 55.8981 15.4331C56.0357 15.2254 56.1305 14.9925 56.1769 14.7479C56.2233 14.5033 56.2204 14.2519 56.1684 14.0084C56.1164 13.7649 56.0162 13.5342 55.8739 13.3298C53.6801 10.0548 50.8612 7.24282 47.578 5.05444ZM16.2515 8.1666C16.4685 8.03514 16.6565 7.86122 16.8042 7.65531C16.9519 7.44941 17.0563 7.21579 17.111 6.96855C17.1657 6.72131 17.1697 6.46557 17.1227 6.21676C17.0756 5.96795 16.9785 5.73123 16.8372 5.52087C16.696 5.31051 16.5135 5.13087 16.3007 4.9928C16.0879 4.85472 15.8494 4.76106 15.5993 4.71748C15.3493 4.67389 15.093 4.68128 14.8459 4.73919C14.5988 4.7971 14.366 4.90434 14.1616 5.05444C10.8785 7.24282 8.05957 10.0548 5.86577 13.3298C5.7153 13.5337 5.60779 13.7659 5.54974 14.0124C5.49168 14.2589 5.48427 14.5145 5.52797 14.7639C5.57166 15.0133 5.66555 15.2513 5.80397 15.4636C5.94239 15.6758 6.12247 15.8579 6.33335 15.9988C6.54423 16.1397 6.78155 16.2366 7.03097 16.2835C7.2804 16.3304 7.53677 16.3265 7.78462 16.2719C8.03247 16.2173 8.26667 16.1132 8.47308 15.9658C8.6795 15.8185 8.85386 15.6309 8.98564 15.4145C10.9069 12.5471 13.376 10.0817 16.2515 8.1666ZM5.05761 24.8747C5.13047 24.3974 5.0159 23.9104 4.73777 23.5153C4.45963 23.1201 4.03938 22.8472 3.56456 22.7534C3.08973 22.6597 2.59695 22.7523 2.18887 23.0119C1.78078 23.2716 1.48886 23.6783 1.37391 24.1473C0.603227 28.0115 0.603227 31.9893 1.37391 35.8535C1.48886 36.3226 1.78078 36.7293 2.18887 36.9889C2.59695 37.2486 3.08973 37.3412 3.56456 37.2474C4.03938 37.1537 4.45963 36.8808 4.73777 36.4856C5.0159 36.0904 5.13047 35.6034 5.05761 35.1261C4.38214 31.7422 4.38214 28.2586 5.05761 24.8747ZM60.3695 24.1473C60.322 23.9055 60.2271 23.6753 60.0903 23.47C59.9536 23.2648 59.7776 23.0884 59.5724 22.9511C59.3672 22.8137 59.1369 22.7181 58.8946 22.6696C58.6524 22.6212 58.4029 22.6209 58.1605 22.6687C57.9181 22.7165 57.6876 22.8115 57.482 22.9483C57.2765 23.0851 57.1 23.261 56.9627 23.4659C56.8254 23.6708 56.7299 23.9007 56.6817 24.1424C56.6336 24.3842 56.6337 24.633 56.682 24.8747C57.3575 28.2586 57.3575 31.7422 56.682 35.1261C56.6218 35.3721 56.612 35.6276 56.6535 35.8774C56.6949 36.1272 56.7867 36.3661 56.9232 36.5795C57.0597 36.793 57.2381 36.9767 57.4477 37.1195C57.6573 37.2623 57.8937 37.3613 58.1427 37.4104C58.3917 37.4596 58.6481 37.4579 58.8965 37.4056C59.1448 37.3532 59.3799 37.2512 59.5877 37.1057C59.7954 36.9602 59.9714 36.7743 60.1052 36.559C60.2389 36.3438 60.3275 36.1038 60.3657 35.8535C61.1364 31.9893 61.1402 28.0115 60.3695 24.1473ZM8.98188 44.5826C8.8501 44.3662 8.67574 44.1786 8.46933 44.0313C8.26291 43.8839 8.02871 43.7798 7.78086 43.7252C7.53301 43.6706 7.27664 43.6667 7.02721 43.7136C6.77779 43.7605 6.54048 43.8574 6.32959 43.9983C6.11871 44.1392 5.93863 44.3213 5.80021 44.5335C5.66179 44.7458 5.5679 44.9838 5.52421 45.2332C5.48051 45.4826 5.48792 45.7383 5.54598 45.9847C5.60403 46.2312 5.71154 46.4634 5.86201 46.6673C8.05581 49.9423 10.8747 52.7543 14.1579 54.9427C14.3623 55.0928 14.595 55.2 14.8421 55.2579C15.0892 55.3158 15.3455 55.3232 15.5956 55.2796C15.8456 55.236 16.0842 55.1424 16.2969 55.0043C16.5097 54.8662 16.6922 54.6866 16.8335 54.4762C16.9748 54.2659 17.0718 54.0291 17.1189 53.7803C17.1659 53.5315 17.162 53.2758 17.1072 53.0286C17.0525 52.7813 16.9481 52.5477 16.8004 52.3418C16.6527 52.1359 16.4647 51.962 16.2478 51.8305C13.3732 49.914 10.9017 47.451 8.98188 44.5826ZM55.8739 46.6673C56.1252 46.2547 56.2072 45.7612 56.1028 45.2897C55.9984 44.8182 55.7157 44.4051 55.3136 44.1364C54.9114 43.8676 54.4209 43.764 53.944 43.8472C53.4672 43.9303 53.041 44.1937 52.754 44.5826C50.8327 47.4501 48.3637 49.9117 45.4881 51.8268C45.2783 51.9616 45.0975 52.1367 44.9563 52.342C44.8151 52.5472 44.7162 52.7785 44.6656 53.0222C44.6149 53.266 44.6134 53.5174 44.6612 53.7617C44.709 54.0061 44.805 54.2385 44.9438 54.4454C45.0826 54.6523 45.2613 54.8296 45.4695 54.9668C45.6777 55.1041 45.9112 55.1987 46.1564 55.2449C46.4016 55.2912 46.6536 55.2884 46.8977 55.2365C47.1418 55.1846 47.3731 55.0847 47.578 54.9427C50.8612 52.7543 53.6801 49.9423 55.8739 46.6673ZM25.7314 55.7488C25.4849 55.6887 25.2287 55.679 24.9782 55.7204C24.7278 55.7617 24.4884 55.8532 24.2744 55.9894C24.0604 56.1255 23.8763 56.3035 23.7331 56.5126C23.59 56.7217 23.4908 56.9575 23.4415 57.2059C23.3922 57.4543 23.3938 57.7101 23.4463 57.9578C23.4988 58.2055 23.6011 58.44 23.7469 58.6473C23.8928 58.8545 24.0792 59.0301 24.295 59.1635C24.5107 59.2969 24.7513 59.3853 25.0022 59.4234C28.876 60.1922 32.8637 60.1922 36.7374 59.4234C37.2076 59.3088 37.6153 59.0176 37.8756 58.6105C38.1359 58.2034 38.2288 57.7118 38.1348 57.2382C38.0408 56.7645 37.7672 56.3453 37.3711 56.0679C36.9749 55.7904 36.4867 55.6761 36.0082 55.7488C32.6159 56.4226 29.1237 56.4226 25.7314 55.7488ZM53.4231 29.9967C53.4231 35.9634 51.0469 41.6857 46.8174 45.9048C42.5878 50.1239 36.8513 52.4942 30.8698 52.4942C24.8883 52.4942 19.1518 50.1239 14.9223 45.9048C10.6927 41.6857 8.31656 35.9634 8.31656 29.9967C8.31656 24.03 10.6927 18.3076 14.9223 14.0885C19.1518 9.86944 24.8883 7.49917 30.8698 7.49917C36.8513 7.49917 42.5878 9.86944 46.8174 14.0885C51.0469 18.3076 53.4231 24.03 53.4231 29.9967ZM27.5808 19.4378C27.1521 19.191 26.6658 19.061 26.1708 19.0611C25.6758 19.0612 25.1895 19.1913 24.7609 19.4383C24.3322 19.6853 23.9764 20.0406 23.7291 20.4684C23.4818 20.8961 23.3518 21.3813 23.3521 21.8751V38.122C23.3518 38.6158 23.4818 39.101 23.7291 39.5288C23.9764 39.9565 24.3322 40.3118 24.7609 40.5588C25.1895 40.8058 25.6758 40.9359 26.1708 40.936C26.6658 40.9361 27.1521 40.8062 27.5808 40.5593L43.0862 31.6202C43.3719 31.4557 43.6091 31.219 43.774 30.934C43.939 30.649 44.0258 30.3258 44.0258 29.9967C44.0258 29.6676 43.939 29.3443 43.774 29.0593C43.6091 28.7743 43.3719 28.5377 43.0862 28.3731L27.5808 19.4378Z" fill="#007D2F"/>
</svg>
