<svg width="549" height="107" viewBox="0 0 549 107" fill="none" xmlns="http://www.w3.org/2000/svg">
<path d="M326 8L546 7" stroke="#020001" stroke-width="9"/>
<path d="M129.762 11.9062H157.057C162.493 11.9062 167.197 12.7201 171.168 14.3477C175.172 15.9753 178.248 18.3841 180.396 21.5742C182.545 24.7643 183.619 28.7031 183.619 33.3906C183.619 37.2969 182.984 40.6172 181.715 43.3516C180.445 46.0859 178.655 48.3483 176.344 50.1387C174.065 51.929 171.396 53.3776 168.336 54.4844L163.16 57.3164H139.918L139.82 44.9629H157.105C159.482 44.9629 161.451 44.5397 163.014 43.6934C164.576 42.847 165.748 41.6589 166.529 40.1289C167.343 38.5664 167.75 36.7435 167.75 34.6602C167.75 32.5117 167.343 30.6562 166.529 29.0938C165.715 27.5312 164.511 26.3431 162.916 25.5293C161.354 24.6829 159.4 24.2598 157.057 24.2598H145.68V83H129.762V11.9062ZM169.117 83L153.15 51.4082L169.947 51.3594L186.158 82.2676V83H169.117ZM221.607 70.4023V47.7461C221.607 46.151 221.363 44.7839 220.875 43.6445C220.387 42.5052 219.622 41.61 218.58 40.959C217.538 40.3079 216.188 39.9824 214.527 39.9824C213.128 39.9824 211.907 40.2266 210.865 40.7148C209.856 41.2031 209.075 41.903 208.521 42.8145C208.001 43.7259 207.74 44.849 207.74 46.1836H192.506C192.506 43.8073 193.043 41.5938 194.117 39.543C195.191 37.4922 196.721 35.6855 198.707 34.123C200.725 32.5605 203.134 31.3561 205.934 30.5098C208.733 29.6309 211.874 29.1914 215.357 29.1914C219.492 29.1914 223.17 29.8913 226.393 31.291C229.648 32.6582 232.219 34.7253 234.107 37.4922C235.995 40.2266 236.939 43.6771 236.939 47.8438V69.9629C236.939 73.153 237.118 75.6595 237.477 77.4824C237.867 79.2728 238.421 80.8353 239.137 82.1699V83H223.756C223.04 81.4701 222.503 79.582 222.145 77.3359C221.786 75.0573 221.607 72.7461 221.607 70.4023ZM223.512 50.7734L223.609 59.1719H216.041C214.348 59.1719 212.883 59.3835 211.646 59.8066C210.442 60.2298 209.465 60.8158 208.717 61.5645C207.968 62.2806 207.415 63.127 207.057 64.1035C206.731 65.0475 206.568 66.0892 206.568 67.2285C206.568 68.3027 206.829 69.2793 207.35 70.1582C207.87 71.0046 208.587 71.6719 209.498 72.1602C210.41 72.6484 211.467 72.8926 212.672 72.8926C214.658 72.8926 216.35 72.502 217.75 71.7207C219.182 70.9395 220.289 69.9954 221.07 68.8887C221.852 67.7493 222.242 66.6914 222.242 65.7148L225.904 72.0625C225.318 73.3646 224.602 74.7155 223.756 76.1152C222.91 77.4824 221.835 78.7682 220.533 79.9727C219.231 81.1445 217.652 82.1048 215.797 82.8535C213.974 83.6022 211.777 83.9766 209.205 83.9766C205.885 83.9766 202.874 83.3092 200.172 81.9746C197.47 80.6074 195.305 78.7357 193.678 76.3594C192.083 73.9831 191.285 71.2487 191.285 68.1562C191.285 65.3893 191.79 62.9316 192.799 60.7832C193.808 58.6348 195.322 56.8118 197.34 55.3145C199.391 53.8171 201.962 52.694 205.055 51.9453C208.147 51.1641 211.76 50.7734 215.895 50.7734H223.512ZM277.711 71.1836V8H293.043V83H279.273L277.711 71.1836ZM244.801 57.2188V56.1934C244.801 52.1895 245.24 48.5436 246.119 45.2559C247.031 41.9355 248.349 39.0872 250.074 36.7109C251.832 34.3021 253.997 32.4466 256.568 31.1445C259.14 29.8424 262.086 29.1914 265.406 29.1914C268.466 29.1914 271.135 29.875 273.414 31.2422C275.693 32.5768 277.63 34.4648 279.225 36.9062C280.852 39.3151 282.171 42.1634 283.18 45.4512C284.189 48.7064 284.954 52.2383 285.475 56.0469V57.8047C284.986 61.4505 284.221 64.8522 283.18 68.0098C282.171 71.1673 280.852 73.9505 279.225 76.3594C277.63 78.7357 275.676 80.6074 273.365 81.9746C271.087 83.3092 268.401 83.9766 265.309 83.9766C261.988 83.9766 259.042 83.3092 256.471 81.9746C253.932 80.64 251.799 78.7682 250.074 76.3594C248.349 73.9505 247.031 71.1185 246.119 67.8633C245.24 64.6081 244.801 61.0599 244.801 57.2188ZM260.035 56.1934V57.2188C260.035 59.3021 260.182 61.2389 260.475 63.0293C260.8 64.8197 261.321 66.3984 262.037 67.7656C262.753 69.1328 263.697 70.207 264.869 70.9883C266.041 71.737 267.473 72.1113 269.166 72.1113C271.445 72.1113 273.316 71.5905 274.781 70.5488C276.246 69.4746 277.353 67.9935 278.102 66.1055C278.85 64.2174 279.241 62.0202 279.273 59.5137V54.3867C279.273 52.3034 279.062 50.4316 278.639 48.7715C278.215 47.1113 277.581 45.7116 276.734 44.5723C275.921 43.4329 274.895 42.5703 273.658 41.9844C272.421 41.3659 270.956 41.0566 269.264 41.0566C267.604 41.0566 266.188 41.4473 265.016 42.2285C263.844 42.9772 262.883 44.0352 262.135 45.4023C261.419 46.7695 260.882 48.3809 260.523 50.2363C260.198 52.0592 260.035 54.0449 260.035 56.1934ZM318.092 8V83H302.857V8H318.092ZM316.09 54.7285L312.281 54.8262C312.281 51.1152 312.737 47.7135 313.648 44.6211C314.592 41.4961 315.927 38.778 317.652 36.4668C319.378 34.1556 321.445 32.3652 323.854 31.0957C326.295 29.8262 328.98 29.1914 331.91 29.1914C334.514 29.1914 336.891 29.5658 339.039 30.3145C341.188 31.0632 343.043 32.2513 344.605 33.8789C346.168 35.5065 347.372 37.6387 348.219 40.2754C349.065 42.9121 349.488 46.1185 349.488 49.8945V83H334.156V49.7969C334.156 47.5508 333.831 45.793 333.18 44.5234C332.561 43.2539 331.65 42.3587 330.445 41.8379C329.273 41.3171 327.841 41.0566 326.148 41.0566C324.163 41.0566 322.519 41.4147 321.217 42.1309C319.915 42.8145 318.889 43.7747 318.141 45.0117C317.392 46.2487 316.855 47.6973 316.529 49.3574C316.236 51.0176 316.09 52.8079 316.09 54.7285ZM387.428 70.4023V47.7461C387.428 46.151 387.184 44.7839 386.695 43.6445C386.207 42.5052 385.442 41.61 384.4 40.959C383.359 40.3079 382.008 39.9824 380.348 39.9824C378.948 39.9824 377.727 40.2266 376.686 40.7148C375.676 41.2031 374.895 41.903 374.342 42.8145C373.821 43.7259 373.561 44.849 373.561 46.1836H358.326C358.326 43.8073 358.863 41.5938 359.938 39.543C361.012 37.4922 362.542 35.6855 364.527 34.123C366.546 32.5605 368.954 31.3561 371.754 30.5098C374.553 29.6309 377.695 29.1914 381.178 29.1914C385.312 29.1914 388.99 29.8913 392.213 31.291C395.468 32.6582 398.04 34.7253 399.928 37.4922C401.816 40.2266 402.76 43.6771 402.76 47.8438V69.9629C402.76 73.153 402.939 75.6595 403.297 77.4824C403.688 79.2728 404.241 80.8353 404.957 82.1699V83H389.576C388.86 81.4701 388.323 79.582 387.965 77.3359C387.607 75.0573 387.428 72.7461 387.428 70.4023ZM389.332 50.7734L389.43 59.1719H381.861C380.169 59.1719 378.704 59.3835 377.467 59.8066C376.262 60.2298 375.286 60.8158 374.537 61.5645C373.788 62.2806 373.235 63.127 372.877 64.1035C372.551 65.0475 372.389 66.0892 372.389 67.2285C372.389 68.3027 372.649 69.2793 373.17 70.1582C373.691 71.0046 374.407 71.6719 375.318 72.1602C376.23 72.6484 377.288 72.8926 378.492 72.8926C380.478 72.8926 382.171 72.502 383.57 71.7207C385.003 70.9395 386.109 69.9954 386.891 68.8887C387.672 67.7493 388.062 66.6914 388.062 65.7148L391.725 72.0625C391.139 73.3646 390.423 74.7155 389.576 76.1152C388.73 77.4824 387.656 78.7682 386.354 79.9727C385.051 81.1445 383.473 82.1048 381.617 82.8535C379.794 83.6022 377.597 83.9766 375.025 83.9766C371.705 83.9766 368.694 83.3092 365.992 81.9746C363.29 80.6074 361.126 78.7357 359.498 76.3594C357.903 73.9831 357.105 71.2487 357.105 68.1562C357.105 65.3893 357.61 62.9316 358.619 60.7832C359.628 58.6348 361.142 56.8118 363.16 55.3145C365.211 53.8171 367.783 52.694 370.875 51.9453C373.967 51.1641 377.581 50.7734 381.715 50.7734H389.332Z" fill="white"/>
<path d="M424.609 57.375L414.922 55.0703L418.242 26.125H450.82V35.7734H428.242L426.875 47.7656C427.578 47.349 428.685 46.8932 430.195 46.3984C431.706 45.8776 433.398 45.6172 435.273 45.6172C438.06 45.6172 440.534 46.0469 442.695 46.9062C444.857 47.7656 446.68 49.0156 448.164 50.6562C449.674 52.2708 450.807 54.263 451.562 56.6328C452.344 59.0026 452.734 61.6979 452.734 64.7188C452.734 67.2188 452.344 69.6146 451.562 71.9062C450.781 74.1719 449.583 76.2031 447.969 78C446.38 79.7708 444.362 81.1771 441.914 82.2188C439.466 83.2604 436.589 83.7812 433.281 83.7812C430.781 83.7812 428.359 83.4036 426.016 82.6484C423.672 81.8932 421.562 80.7995 419.688 79.3672C417.839 77.9089 416.367 76.138 415.273 74.0547C414.206 71.9714 413.659 69.6276 413.633 67.0234H425.82C425.951 68.5339 426.328 69.8359 426.953 70.9297C427.578 71.9974 428.424 72.8307 429.492 73.4297C430.56 74.0026 431.797 74.2891 433.203 74.2891C434.557 74.2891 435.703 74.0286 436.641 73.5078C437.578 72.9609 438.32 72.2188 438.867 71.2812C439.44 70.3438 439.857 69.25 440.117 68C440.378 66.75 440.508 65.4089 440.508 63.9766C440.508 62.4922 440.339 61.1641 440 59.9922C439.661 58.7943 439.141 57.7786 438.438 56.9453C437.734 56.0859 436.836 55.4349 435.742 54.9922C434.674 54.5234 433.385 54.2891 431.875 54.2891C429.896 54.2891 428.346 54.6146 427.227 55.2656C426.107 55.9167 425.234 56.6198 424.609 57.375ZM489.219 25.4219H491.094V35.1094H490.391C487.656 35.1094 485.156 35.5 482.891 36.2812C480.651 37.0625 478.711 38.2214 477.07 39.7578C475.43 41.2682 474.167 43.1432 473.281 45.3828C472.422 47.5964 471.992 50.1484 471.992 53.0391V62.7266C471.992 64.6797 472.161 66.3854 472.5 67.8438C472.865 69.276 473.385 70.474 474.062 71.4375C474.766 72.375 475.612 73.0911 476.602 73.5859C477.591 74.0547 478.711 74.2891 479.961 74.2891C481.081 74.2891 482.109 74.0417 483.047 73.5469C483.984 73.0521 484.792 72.349 485.469 71.4375C486.146 70.526 486.667 69.4714 487.031 68.2734C487.396 67.0495 487.578 65.7214 487.578 64.2891C487.578 62.7786 487.383 61.4115 486.992 60.1875C486.628 58.9375 486.094 57.8698 485.391 56.9844C484.714 56.099 483.88 55.4219 482.891 54.9531C481.901 54.4583 480.807 54.2109 479.609 54.2109C477.891 54.2109 476.406 54.6016 475.156 55.3828C473.906 56.1641 472.943 57.1667 472.266 58.3906C471.589 59.6146 471.237 60.8646 471.211 62.1406L467.969 59.4453C467.969 57.6745 468.32 55.9297 469.023 54.2109C469.753 52.4661 470.781 50.8906 472.109 49.4844C473.438 48.0521 475.065 46.9193 476.992 46.0859C478.945 45.2266 481.172 44.7969 483.672 44.7969C486.302 44.7969 488.62 45.3047 490.625 46.3203C492.63 47.3099 494.31 48.6901 495.664 50.4609C497.044 52.2318 498.073 54.3021 498.75 56.6719C499.453 59.0156 499.805 61.5286 499.805 64.2109C499.805 66.9714 499.323 69.5495 498.359 71.9453C497.422 74.3151 496.094 76.3854 494.375 78.1562C492.656 79.9271 490.599 81.3073 488.203 82.2969C485.833 83.2865 483.19 83.7812 480.273 83.7812C477.253 83.7812 474.492 83.2474 471.992 82.1797C469.518 81.112 467.357 79.5885 465.508 77.6094C463.685 75.6042 462.266 73.2083 461.25 70.4219C460.26 67.6354 459.766 64.5104 459.766 61.0469V56.4766C459.766 51.737 460.495 47.4661 461.953 43.6641C463.438 39.862 465.495 36.6068 468.125 33.8984C470.781 31.1641 473.906 29.0677 477.5 27.6094C481.094 26.151 485 25.4219 489.219 25.4219ZM545.156 26.125V32.6875L523.516 83H510.625L532.266 35.6172H504.531V26.125H545.156Z" fill="#020001"/>
<rect width="112" height="107" rx="9" fill="white"/>
<path d="M61.9203 25.7788C65.3299 25.7788 70.3546 25.5544 75.2895 26.4517C93.5487 29.7716 95.1189 46.9541 90.498 57.2726C88.6587 61.3551 85.3388 64.2712 81.3011 66.1106C79.2374 67.0527 79.5066 67.7705 80.5833 69.3407C84.8453 75.3972 88.9727 81.5434 93.145 87.6448C93.5487 88.228 94.3114 88.8561 93.8628 89.6188C93.4141 90.3366 92.5169 90.0225 91.7991 90.0225C87.8511 90.0674 83.8583 89.9777 79.9104 90.0674C78.385 90.1123 77.4429 89.5739 76.5905 88.2729C73.0015 82.7547 69.233 77.3712 65.6888 71.853C64.657 70.2828 63.4905 69.6099 61.6511 69.7445C59.6323 69.8791 57.6135 69.8342 55.5946 69.7445C54.0693 69.6996 53.4861 70.3277 53.4861 71.853C53.5309 77.102 53.4412 82.3061 53.5309 87.5551C53.5758 89.3945 52.9477 90.1123 51.0635 90.0674C47.6988 89.9777 44.334 90.0225 40.9693 90.0674C39.5337 90.0674 38.9056 89.4842 38.9505 88.0486C38.9953 85.7157 38.9953 83.4277 38.9505 81.0948C38.9505 80.0629 39.3542 79.2554 40.0721 78.4927C45.7697 72.5708 49.9868 65.7965 52.4094 57.9006C52.7234 56.8688 53.3066 56.5996 54.3833 56.5996C59.408 56.6445 64.3878 56.7791 69.4124 56.5548C75.2446 56.3304 78.6542 52.0236 77.8915 46.2363C77.398 42.5126 74.8409 40.0452 70.7135 39.3274C66.0477 38.5198 61.2922 38.9236 56.6265 38.9685C54.6077 38.9685 53.6655 38.3852 53.2618 36.3664C52.6337 33.2709 51.1981 30.4445 49.583 27.7527C48.6857 26.2274 49.1792 25.7339 50.7494 25.7339C53.8899 25.8236 57.12 25.7788 61.9203 25.7788Z" fill="#478767"/>
<path d="M46.3534 26.4067C50.3911 30.8033 52.4099 36.0074 52.9034 41.6602C54.6531 62.1177 40.0277 83.3827 20.288 89.2149C19.5702 89.4392 18.8524 89.5289 18 89.3944C20.3329 87.6447 22.7555 85.9848 24.9986 84.1005C28.9914 80.8255 32.6253 77.1468 34.8236 72.3464C37.3808 66.6488 36.1695 59.8745 31.7729 55.6125C27.6007 51.5749 23.6527 51.216 18.987 54.491C17.9551 51.53 20.0637 48.6588 23.563 48.255C25.8062 47.9858 28.0044 48.5242 30.2476 48.8382C32.9842 49.1971 35.676 49.9598 38.4575 50.0047C42.54 50.0944 45.501 48.0756 46.8469 44.2173C48.5068 39.5516 48.1928 34.7961 47.2507 30.0855C46.9366 28.8293 46.6674 27.618 46.3534 26.4067Z" fill="#478767"/>
<path d="M42.2712 42.423C42.2264 45.0699 40.0281 47.2233 37.3812 47.2233C34.7342 47.1784 32.5808 44.9802 32.6257 42.3332C32.6706 39.6863 34.9137 37.488 37.5158 37.5329C40.1178 37.5329 42.2712 39.7761 42.2712 42.423Z" fill="#478767"/>
<path d="M49.2697 9C49.9427 12.589 51.9166 13.8452 55.4159 13.4414C52.455 15.3705 51.3334 17.6586 53.442 20.8887C51.5129 20.5298 50.7502 18.8699 49.3146 18.825C47.8341 18.7801 47.0714 20.4401 45.2321 20.8887C46.6228 17.7931 46.8471 15.1014 42.7197 13.6657C46.219 13.6657 48.7314 12.9031 49.2697 9Z" fill="#478767"/>
</svg>
