<svg width="50" height="50" viewBox="0 0 50 50" fill="none" xmlns="http://www.w3.org/2000/svg">
<circle cx="25" cy="25" r="20" fill="#FF0000"/>
<path d="M31.9888 34.9501C31.127 34.9456 30.2576 34.609 29.6445 33.9954L24.9975 29.3484L20.3505 33.9954C19.1393 35.2067 17.179 35.2996 15.9824 34.2039C14.7117 33.0404 14.6684 30.9693 15.8833 29.7544L20.6434 24.994C20.6434 24.994 15.8867 20.2373 15.8833 20.2339C14.6546 19.0051 14.7223 16.9111 16.0117 15.7581C17.2273 14.6703 19.1215 14.7642 20.3261 15.9687L24.9975 20.6405L29.669 15.9687C30.8723 14.7642 32.7671 14.6703 33.9833 15.7581C35.2709 16.9097 35.3277 19.0182 34.1117 20.2342L29.3516 24.9946C29.3516 24.9946 34.1103 29.7529 34.1117 29.7544C35.3356 30.9781 35.2874 33.0373 34.0127 34.2039C33.4525 34.7165 32.7234 34.9539 31.9888 34.9501ZM24.9975 27.8565C25.1659 27.8562 25.3351 27.9152 25.4573 28.0375L30.5299 33.11C31.274 33.8541 32.4571 33.93 33.1664 33.2806C33.9189 32.5918 33.9456 31.359 33.2264 30.6398C33.2264 30.6398 28.0457 25.4588 28.0407 25.4538C27.7855 25.1986 27.7915 24.7674 28.0554 24.5207C28.0554 24.5207 33.222 19.3529 33.2264 19.3485C33.9627 18.612 33.9209 17.3824 33.1481 16.6912C32.4407 16.0583 31.2777 16.1323 30.5544 16.8541L25.4573 21.9514C25.2177 22.1902 24.7994 22.1972 24.5524 21.9655L19.4407 16.8541C18.7186 16.1323 17.555 16.0583 16.847 16.6911C16.0883 17.3692 16.0498 18.6299 16.7687 19.3482C16.7687 19.3482 21.9443 24.5247 21.9543 24.5348C22.1972 24.7776 22.2015 25.2231 21.9397 25.4679C21.9397 25.4679 16.7744 30.6341 16.7687 30.6398C16.0452 31.3634 16.0782 32.5931 16.8286 33.2806C17.5385 33.93 18.7223 33.8535 19.4652 33.11C19.4652 33.11 24.5337 28.0415 24.5377 28.0375C24.6567 27.9185 24.8266 27.8569 24.9975 27.8565Z" fill="white"/>
<circle cx="25" cy="25" r="24" stroke="#FF0000" stroke-width="2"/>
</svg>
