<svg width="50" height="50" viewBox="0 0 50 50" fill="none" xmlns="http://www.w3.org/2000/svg">
<path d="M45 25C45 36.0457 36.0457 45 25 45C13.9543 45 5 36.0457 5 25C5 13.9543 13.9543 5 25 5C36.0457 5 45 13.9543 45 25Z" fill="url(#paint0_linear_300_2747)"/>
<path fill-rule="evenodd" clip-rule="evenodd" d="M21.5462 16.5823C21.3632 16.445 21.1456 16.3615 20.9177 16.3409C20.6899 16.3204 20.4608 16.3637 20.2562 16.466C20.0515 16.5683 19.8795 16.7256 19.7592 16.9202C19.6389 17.1148 19.5752 17.339 19.5752 17.5678V32.3504C19.5752 32.5792 19.6389 32.8035 19.7592 32.9981C19.8795 33.1927 20.0515 33.3499 20.2562 33.4523C20.4608 33.5546 20.6899 33.5979 20.9177 33.5773C21.1456 33.5568 21.3632 33.4732 21.5462 33.3359L31.4013 25.9446C31.5543 25.8299 31.6785 25.6811 31.764 25.51C31.8495 25.339 31.894 25.1504 31.894 24.9591C31.894 24.7679 31.8495 24.5793 31.764 24.4082C31.6785 24.2372 31.5543 24.0884 31.4013 23.9736L21.5462 16.5823Z" fill="white"/>
<circle cx="25" cy="25" r="24" stroke="url(#paint1_linear_300_2747)" stroke-width="2"/>
<defs>
<linearGradient id="paint0_linear_300_2747" x1="-11.3478" y1="-8.04348" x2="58.7762" y2="1.2053" gradientUnits="userSpaceOnUse">
<stop stop-color="#1C3E35"/>
<stop offset="1" stop-color="#4AA48C"/>
</linearGradient>
<linearGradient id="paint1_linear_300_2747" x1="-20.4348" y1="-16.3044" x2="67.2202" y2="-4.74337" gradientUnits="userSpaceOnUse">
<stop stop-color="#1C3E35"/>
<stop offset="1" stop-color="#4AA48C"/>
</linearGradient>
</defs>
</svg>
