<svg width="60" height="60" viewBox="0 0 60 60" fill="none" xmlns="http://www.w3.org/2000/svg">
<path d="M60 30C60 46.5685 46.5685 60 30 60C13.4315 60 0 46.5685 0 30C0 13.4315 13.4315 0 30 0C46.5685 0 60 13.4315 60 30Z" fill="#26A967"/>
<path fill-rule="evenodd" clip-rule="evenodd" d="M24.8193 17.3735C24.5448 17.1676 24.2183 17.0422 23.8766 17.0114C23.5348 16.9806 23.1912 17.0455 22.8842 17.199C22.5773 17.3525 22.3192 17.5884 22.1388 17.8803C21.9584 18.1722 21.8628 18.5086 21.8628 18.8517V41.0256C21.8628 41.3688 21.9584 41.7052 22.1388 41.9971C22.3192 42.289 22.5773 42.5249 22.8842 42.6784C23.1912 42.8319 23.5348 42.8968 23.8766 42.866C24.2183 42.8352 24.5448 42.7098 24.8193 42.5039L39.6019 31.417C39.8314 31.2448 40.0177 31.0216 40.146 30.7651C40.2743 30.5085 40.3411 30.2256 40.3411 29.9387C40.3411 29.6518 40.2743 29.3689 40.146 29.1123C40.0177 28.8557 39.8314 28.6325 39.6019 28.4604L24.8193 17.3735Z" fill="white"/>
</svg>
