<svg width="376" height="126" viewBox="0 0 376 126" fill="none" xmlns="http://www.w3.org/2000/svg">
<path d="M85.2 78.5C85.2 83.5667 83.8667 87.7 81.2 90.9C78.6 94.0333 75.0667 96.3 70.6 97.7C66.2 99.1 61.2667 99.7 55.8 99.5C50.3333 99.3667 44.7667 98.5333 39.1 97C39.1 94.1333 39.1 91.2667 39.1 88.4C39.1 85.5333 39.1 82.6667 39.1 79.8C44.3 81.6667 49.0333 82.8333 53.3 83.3C57.5667 83.7667 60.9667 83.6 63.5 82.8C66.0333 81.9333 67.3 80.5 67.3 78.5C67.3 77.1 66.6 75.9667 65.2 75.1C63.8 74.1667 61.9667 73.3333 59.7 72.6C57.5 71.8667 55.1667 71.0333 52.7 70.1C50.2333 69.1 47.8667 67.8667 45.6 66.4C43.4 64.8667 41.6 62.9 40.2 60.5C38.8 58.0333 38.1 54.9667 38.1 51.3C38.1 46.7667 39.3 42.9333 41.7 39.8C44.1 36.6667 47.3333 34.3 51.4 32.7C55.5333 31.1 60.2 30.3 65.4 30.3C70.6667 30.3 76.1 31.1 81.7 32.7C81.7 35.5667 81.7 38.4333 81.7 41.3C81.7 44.1667 81.7 47.0333 81.7 49.9C77.0333 47.9 72.7333 46.7 68.8 46.3C64.9333 45.8333 61.8333 46.0333 59.5 46.9C57.1667 47.7 56 49.0333 56 50.9C56 52.2333 56.7 53.3333 58.1 54.2C59.5 55.0667 61.3 55.8667 63.5 56.6C65.7667 57.2667 68.1333 58.1 70.6 59.1C73.0667 60.0333 75.4 61.3 77.6 62.9C79.8667 64.4333 81.7 66.4667 83.1 69C84.5 71.4667 85.2 74.6333 85.2 78.5ZM97.732 99C97.732 92.8667 97.732 86.7 97.732 80.5C97.732 74.3 97.732 68.1667 97.732 62.1C96.3987 62.1 95.032 62.1 93.632 62.1C92.2987 62.1 90.9654 62.1 89.632 62.1C89.632 59.6333 89.632 57.1667 89.632 54.7C89.632 52.2333 89.632 49.7667 89.632 47.3C90.9654 47.3 92.2987 47.3 93.632 47.3C95.032 47.3 96.3987 47.3 97.732 47.3C97.732 44.9667 97.732 42.6667 97.732 40.4C97.732 38.0667 97.732 35.7667 97.732 33.5C100.465 33.5 103.232 33.5 106.032 33.5C108.832 33.5 111.565 33.5 114.232 33.5C114.232 35.7667 114.232 38.0667 114.232 40.4C114.232 42.6667 114.232 44.9667 114.232 47.3C115.765 47.3 117.332 47.3 118.932 47.3C120.532 47.3 122.099 47.3 123.632 47.3C123.632 49.7667 123.632 52.2333 123.632 54.7C123.632 57.1667 123.632 59.6333 123.632 62.1C122.099 62.1 120.532 62.1 118.932 62.1C117.332 62.1 115.765 62.1 114.232 62.1C114.232 68.1667 114.232 74.3 114.232 80.5C114.232 86.7 114.232 92.8667 114.232 99C111.565 99 108.832 99 106.032 99C103.232 99 100.465 99 97.732 99ZM165.602 99C165.602 98.4667 165.602 97.9667 165.602 97.5C165.602 96.9667 165.602 96.4667 165.602 96C163.935 97.4 162.035 98.4667 159.902 99.2C157.835 100 155.602 100.4 153.202 100.4C149.802 100.4 146.602 99.7667 143.602 98.5C140.602 97.1667 137.935 95.3 135.602 92.9C133.335 90.4333 131.535 87.5333 130.202 84.2C128.935 80.8667 128.302 77.1667 128.302 73.1C128.302 68.9667 128.935 65.2333 130.202 61.9C131.535 58.5667 133.335 55.7333 135.602 53.4C137.935 51 140.602 49.1667 143.602 47.9C146.602 46.5667 149.768 45.9 153.102 45.9C155.502 45.9 157.768 46.3 159.902 47.1C162.035 47.8333 163.935 48.8667 165.602 50.2C165.602 49.6667 165.602 49.1667 165.602 48.7C165.602 48.2333 165.602 47.7667 165.602 47.3C168.335 47.3 171.102 47.3 173.902 47.3C176.702 47.3 179.435 47.3 182.102 47.3C182.102 55.8333 182.102 64.4667 182.102 73.2C182.102 81.8667 182.102 90.4667 182.102 99C179.435 99 176.702 99 173.902 99C171.102 99 168.335 99 165.602 99ZM155.402 85.8C158.602 85.8 161.168 84.6333 163.102 82.3C165.035 79.9667 166.002 76.9 166.002 73.1C166.002 69.3 165.035 66.2667 163.102 64C161.168 61.6667 158.602 60.5 155.402 60.5C152.135 60.5 149.535 61.6333 147.602 63.9C145.735 66.1667 144.802 69.2333 144.802 73.1C144.802 76.9667 145.735 80.0667 147.602 82.4C149.535 84.6667 152.135 85.8 155.402 85.8ZM193.113 99C193.113 90.4667 193.113 81.8667 193.113 73.2C193.113 64.4667 193.113 55.8333 193.113 47.3C195.847 47.3 198.613 47.3 201.413 47.3C204.213 47.3 206.947 47.3 209.613 47.3C209.613 47.7667 209.613 48.2333 209.613 48.7C209.613 49.1667 209.613 49.6333 209.613 50.1C211.68 48.6333 214.013 47.5333 216.613 46.8C219.213 46.0667 222.047 45.8667 225.113 46.2C225.113 48.8667 225.113 51.5667 225.113 54.3C225.113 57.0333 225.113 59.7333 225.113 62.4C219.847 61.6667 215.947 62.1333 213.413 63.8C210.88 65.4 209.613 68.0333 209.613 71.7C209.613 76.1667 209.613 80.7 209.613 85.3C209.613 89.9 209.613 94.4667 209.613 99C206.947 99 204.213 99 201.413 99C198.613 99 195.847 99 193.113 99ZM258.266 29.8C258.266 41.2 258.266 52.7333 258.266 64.4C258.266 76.0667 258.266 87.6 258.266 99C255.4 99 252.5 99 249.566 99C246.633 99 243.7 99 240.766 99C240.766 90.8667 240.766 82.6667 240.766 74.4C240.766 66.0667 240.766 57.8667 240.766 49.8C238.833 50.2 236.866 50.6333 234.866 51.1C232.933 51.5 231 51.9 229.066 52.3C229.066 49.6333 229.066 46.9333 229.066 44.2C229.066 41.4667 229.066 38.7667 229.066 36.1C233.866 35.0333 238.733 34 243.666 33C248.6 31.9333 253.466 30.8667 258.266 29.8ZM267.262 86.1C267.262 83.5 267.262 80.8667 267.262 78.2C267.262 75.4667 267.262 72.8 267.262 70.2C270.595 63.7333 273.962 57.2 277.362 50.6C280.762 44 284.095 37.4667 287.362 31C291.628 31 295.895 31 300.162 31C304.495 31 308.795 31 313.062 31C313.062 37.4667 313.062 44 313.062 50.6C313.062 57.2 313.062 63.7333 313.062 70.2C314.595 70.2 316.162 70.2 317.762 70.2C319.428 70.2 321.028 70.2 322.562 70.2C322.562 72.8 322.562 75.4667 322.562 78.2C322.562 80.8667 322.562 83.5 322.562 86.1C321.028 86.1 319.428 86.1 317.762 86.1C316.162 86.1 314.595 86.1 313.062 86.1C313.062 88.2333 313.062 90.4 313.062 92.6C313.062 94.7333 313.062 96.8667 313.062 99C310.262 99 307.395 99 304.462 99C301.595 99 298.762 99 295.962 99C295.962 96.8667 295.962 94.7333 295.962 92.6C295.962 90.4 295.962 88.2333 295.962 86.1C291.228 86.1 286.428 86.1 281.562 86.1C276.762 86.1 271.995 86.1 267.262 86.1ZM285.262 70.2C286.995 70.2 288.762 70.2 290.562 70.2C292.428 70.2 294.228 70.2 295.962 70.2C295.962 66.4667 295.962 62.6667 295.962 58.8C295.962 54.9333 295.962 51.1333 295.962 47.4C294.228 51.1333 292.428 54.9333 290.562 58.8C288.762 62.6667 286.995 66.4667 285.262 70.2ZM332.063 60.3C334.863 58.1 337.663 55.8667 340.463 53.6C343.329 51.3333 346.163 49.1 348.963 46.9C345.563 46.9 342.096 46.9 338.563 46.9C335.096 46.9 331.663 46.9 328.263 46.9C328.263 44.3 328.263 41.6667 328.263 39C328.263 36.2667 328.263 33.6 328.263 31C335.263 31 342.296 31 349.363 31C356.496 31 363.563 31 370.563 31C370.563 33.6 370.563 36.2667 370.563 39C370.563 41.6667 370.563 44.3 370.563 46.9C368.163 48.8333 365.763 50.8 363.363 52.8C360.963 54.8 358.563 56.7667 356.163 58.7C361.629 59.7667 365.829 62.0333 368.763 65.5C371.763 68.9 373.263 73.2 373.263 78.4C373.263 83.3333 372.063 87.4 369.663 90.6C367.263 93.8 363.963 96.1667 359.763 97.7C355.563 99.2333 350.729 99.9333 345.263 99.8C339.863 99.6667 334.129 98.7 328.063 96.9C328.063 94.1667 328.063 91.4 328.063 88.6C328.063 85.7333 328.063 82.9333 328.063 80.2C332.929 81.9333 337.496 83.0333 341.763 83.5C346.029 83.9667 349.463 83.8 352.063 83C354.729 82.1333 356.063 80.6333 356.063 78.5C356.063 76.4333 355.029 74.8667 352.963 73.8C350.896 72.7333 348.029 72.0667 344.363 71.8C340.763 71.4667 336.663 71.5 332.063 71.9C332.063 69.9667 332.063 68.0333 332.063 66.1C332.063 64.1 332.063 62.1667 332.063 60.3Z" fill="white"/>
<g clip-path="url(#clip0_266_6265)">
<path d="M13.6 43.6C13.2 43 13.4 42.6 13.5 42.3C13.9 40.4 14.3 38.5 14.7 36.6C15 35.4 14.6 34.6 13.7 33.9C9.39999 30 5.19999 26.1 0.899989 22.3C0.499989 21.9 -0.100011 21.6 -1.06879e-05 21C0.199989 20.4 0.899989 20.6 1.39999 20.6C7.19999 20 13 19.3 18.8 18.8C19.8 18.7 20.4 18.3 20.7 17.4C22.8 12.6 24.9 7.9 27 3.1C27.3 2.3 27.7 1.5 28.1 0.7C28.3 0.4 28.4 0 28.9 0C29.3 0 29.4 0.4 29.6 0.7C30.9 3.6 32.2 6.5 33.5 9.4C34.7 12 35.9 14.7 37 17.3C37.4 18.2 38 18.7 38.9 18.7C41.1 18.9 43.4 19.2 45.6 19.4C46 19.4 46.5 19.4 46.9 20C34.4 25.9 22.4 32.4 13.6 43.6Z" fill="#A8A8A8"/>
<path d="M86.6 13.3999C85.1 13.9999 83.7 13.8999 82.4 14.0999C64.2 16.9999 47.6 23.6999 32.6 34.4999C28.4 37.4999 24.6 41.0999 21.8 45.3999C20.4 47.4999 19.4 49.7999 19.5 52.4999C19.6 55.4999 21.3 57.3999 23.7 58.6999C27.1 60.5999 30.9 61.0999 34.7 61.0999C35.5 61.0999 36.3 61.0999 37.1 61.1999C36.3 61.6999 35.3 61.6999 34.4 61.7999C30.1 62.2999 25.7 62.2999 21.4 61.3999C19.5 60.9999 17.7 60.4999 16 59.4999C12.3 57.3999 10.9 53.6999 12.3 49.5999C13.3 46.5999 15 44.0999 17.1 41.7999C22.2 36.1999 28.2 31.8999 34.8 28.0999C46.9 21.1999 59.7 16.3999 73.4 14.0999C77.7 13.4999 81.9 13.0999 86.6 13.3999Z" fill="#A8A8A8"/>
<path d="M72.9 18.2002C70.6 19.0002 68.2 19.8002 65.9 20.6002C59.2 23.1002 52.8 26.2002 46.8 29.9002C41.7 33.0002 36.9 36.6002 32.8 41.0002C30.7 43.3002 28.9 45.8002 27.8 48.8002C26.4 52.6002 27.5 55.8002 31 57.9002C31.6 58.3002 32.3 58.7002 32.9 59.2002C29.4 58.7002 26.1 58.0002 24.1 54.6002C22.9 52.6002 23 50.5002 23.7 48.4002C24.7 45.5002 26.5 43.1002 28.6 40.8002C32.5 36.6002 37.1 33.3002 41.9 30.4002C48.9 26.2002 56.2 22.9002 64 20.3002C66.8 19.5002 69.8 18.5002 72.9 18.2002Z" fill="#A8A8A8"/>
</g>
<defs>
<clipPath id="clip0_266_6265">
<rect width="86.6" height="62.1" fill="white"/>
</clipPath>
</defs>
</svg>
