<svg width="56" height="73" viewBox="0 0 56 73" fill="none" xmlns="http://www.w3.org/2000/svg">
<path d="M28.0001 54.2749C26.014 54.2754 24.1006 53.5277 22.641 52.1808C21.1814 50.8339 20.2827 48.9867 20.1238 47.0069C14.8552 45.1421 10.4149 41.4758 7.58659 36.6554C4.75829 31.835 3.72388 26.1704 4.66597 20.6615C5.60806 15.1526 8.46606 10.1536 12.7355 6.54703C17.0049 2.94042 22.4112 0.95809 28.0001 0.949951C33.9444 0.94909 39.672 3.18205 44.0472 7.20606C48.4224 11.2301 51.1257 16.7513 51.6211 22.6749C51.6376 22.9319 51.6005 23.1895 51.5121 23.4313C51.4237 23.6731 51.286 23.8939 51.1077 24.0796C50.9294 24.2654 50.7144 24.412 50.4764 24.5102C50.2383 24.6084 49.9825 24.656 49.7251 24.65C49.196 24.6367 48.6908 24.4272 48.3075 24.0622C47.9243 23.6972 47.6904 23.2028 47.6513 22.6749C47.2995 19.1825 46.0233 15.8469 43.9541 13.0116C41.8848 10.1762 39.0973 7.94358 35.8785 6.54349C32.6597 5.14341 29.1259 4.62646 25.6409 5.04588C22.1559 5.4653 18.8457 6.80592 16.051 8.92974C13.2563 11.0535 11.0781 13.8838 9.74063 17.1292C8.40319 20.3745 7.95483 23.9176 8.4417 27.3938C8.92858 30.87 10.3331 34.1537 12.5107 36.9067C14.6883 39.6597 17.5602 41.7826 20.8308 43.0569C21.426 41.771 22.356 40.6688 23.5235 39.8659C24.6909 39.0629 26.0529 38.5887 27.4666 38.493C28.8803 38.3973 30.2937 38.6835 31.5588 39.3218C32.8239 39.96 33.894 40.9268 34.657 42.1207C35.42 43.3147 35.8479 44.6919 35.8958 46.108C35.9436 47.5242 35.6098 48.9271 34.9291 50.1699C34.2484 51.4126 33.2461 52.4495 32.027 53.1717C30.8079 53.8939 29.417 54.275 28.0001 54.2749ZM8.28565 44.3999H8.6451C10.977 46.6875 13.6958 48.5437 16.6754 49.8825C17.5511 52.7717 19.4965 55.2178 22.1145 56.7213C24.7324 58.2248 27.8255 58.6724 30.7623 57.9728C33.6991 57.2731 36.2581 55.4789 37.9169 52.9565C39.5757 50.4341 40.2093 47.3736 39.6881 44.3999H47.7501C49.8453 44.3999 51.8547 45.2323 53.3362 46.7138C54.8178 48.1953 55.6501 50.2047 55.6501 52.2999C55.6501 58.9794 52.3597 64.0157 47.2168 67.2981C42.1529 70.5253 35.3273 72.0499 28.0001 72.0499C20.6728 72.0499 13.8472 70.5253 8.78335 67.2981C3.64045 64.0196 0.350098 58.9754 0.350098 52.2999C0.350098 47.9036 3.91695 44.3999 8.28565 44.3999ZM43.8001 24.65C43.801 27.3227 43.1238 29.9519 41.832 32.2917C40.5401 34.6315 38.6759 36.6054 36.4136 38.0286C35.3119 36.9182 34.0012 36.0369 32.5571 35.4356C31.1131 34.8342 29.5643 34.5247 28.0001 34.5249C26.4359 34.5247 24.8871 34.8342 23.443 35.4356C21.999 36.0369 20.6883 36.9182 19.5866 38.0286C16.5863 36.1418 14.3075 33.3009 13.1165 29.9627C12.5089 28.2574 12.1989 26.4603 12.2001 24.65C12.2001 20.4595 13.8647 16.4407 16.8278 13.4777C19.7909 10.5146 23.8097 8.84995 28.0001 8.84995C32.1905 8.84995 36.2093 10.5146 39.1724 13.4777C42.1355 16.4407 43.8001 20.4595 43.8001 24.65Z" fill="#075358"/>
</svg>
