<svg width="456" height="133" viewBox="0 0 456 133" fill="none" xmlns="http://www.w3.org/2000/svg">
<rect x="2" y="16" width="113" height="103" rx="18" fill="#F5F5F5" stroke="#028A94" stroke-width="4"/>
<path d="M201 105V30H215.7V105H201ZM245.36 106.3C238.293 106.3 233.06 103.667 229.66 98.4C226.327 93.1333 224.66 86.0667 224.66 77.2C224.66 71.2 225.493 66 227.16 61.6C228.893 57.2 231.36 53.8 234.56 51.4C237.76 48.9333 241.527 47.7 245.86 47.7C251.393 47.7 255.86 49.4667 259.26 53C262.66 56.4667 264.593 61.1667 265.06 67.1L252.06 69.7C251.927 68.0333 251.66 66.3333 251.26 64.6C250.927 62.8667 250.327 61.4333 249.46 60.3C248.593 59.1 247.393 58.5 245.86 58.5C243.993 58.5 242.56 59.4 241.56 61.2C240.56 62.9333 239.86 65.2333 239.46 68.1C239.127 70.9 238.96 73.9333 238.96 77.2C238.96 82.8667 239.46 87.3333 240.46 90.6C241.527 93.8667 243.327 95.5 245.86 95.5C247.46 95.5 248.693 94.9333 249.56 93.8C250.493 92.6667 251.16 91.3333 251.56 89.8C251.96 88.2 252.193 86.7333 252.26 85.4L265.06 86.8C264.66 90.3333 263.593 93.6 261.86 96.6C260.193 99.5333 257.96 101.9 255.16 103.7C252.36 105.433 249.093 106.3 245.36 106.3ZM272.852 105V30.7L286.852 29V58.8C288.052 54.9333 289.918 52.1333 292.452 50.4C295.052 48.6 297.985 47.7 301.252 47.7C305.185 47.7 308.318 49.0667 310.652 51.8C313.052 54.4667 314.252 58.7333 314.252 64.6V105H300.252V70.2C300.252 66.2 299.818 63.4667 298.952 62C298.085 60.4667 296.685 59.7 294.752 59.7C292.418 59.7 290.518 61.3 289.052 64.5C287.585 67.6333 286.852 71.5667 286.852 76.3V105H272.852ZM333.43 105V47.6C331.764 48.1333 330.097 48.5333 328.43 48.8C326.83 49.0667 325.064 49.2667 323.13 49.4L320.73 38.2C325.464 37.4667 329.23 36.4667 332.03 35.2C334.897 33.8667 337.564 31.8667 340.03 29.2L347.63 30.1V105H333.43ZM382.845 105V88.7H358.045L356.645 79.8C361.845 71.2 366.645 62.6333 371.045 54.1C375.445 45.5667 379.278 37.5333 382.545 30H396.945V77.5H405.945L404.745 88.7H397.045V105H382.845ZM367.945 77.5H383.045V48C381.178 52.6667 378.945 57.5 376.345 62.5C373.745 67.5 370.945 72.5 367.945 77.5ZM430.528 106.4C426.261 106.4 422.495 105.5 419.228 103.7C416.028 101.9 413.495 99.3667 411.628 96.1C409.828 92.8333 408.861 89.0667 408.728 84.8L421.728 83.4C421.861 86.9333 422.661 89.7333 424.128 91.8C425.661 93.8 427.661 94.8 430.128 94.8C432.461 94.8 434.261 93.9 435.528 92.1C436.795 90.3 437.428 87.7333 437.428 84.4C437.428 80.2667 436.295 77.2333 434.028 75.3C431.761 73.3667 428.228 72.4 423.428 72.4V61.6C432.095 61.6 436.428 57.6333 436.428 49.7C436.428 46.6333 435.861 44.3 434.728 42.7C433.595 41.0333 431.995 40.2 429.928 40.2C425.461 40.2 422.961 44.1667 422.428 52.1L409.428 49.2C409.895 42.8667 412.028 37.8667 415.828 34.2C419.695 30.4667 424.661 28.6 430.728 28.6C436.861 28.6 441.728 30.4 445.328 34C448.995 37.5333 450.828 42.2667 450.828 48.2C450.828 52.4667 449.861 56.2667 447.928 59.6C446.061 62.8667 443.461 65.2667 440.128 66.8C443.928 68.2667 446.828 70.6 448.828 73.8C450.828 76.9333 451.828 80.6667 451.828 85C451.828 89.2 450.928 92.9333 449.128 96.2C447.328 99.4 444.828 101.9 441.628 103.7C438.495 105.5 434.795 106.4 430.528 106.4Z" fill="#075358"/>
<path d="M201.012 5.06245L216.321 5.00044L216.386 21.0003L201.073 23.001L201.012 5.06245Z" fill="#028A94"/>
<path d="M194.552 106.258C194.345 106.445 194.084 106.37 193.844 106.37C189.408 106.375 184.966 106.375 180.53 106.381C178.49 106.381 176.445 106.375 174.405 106.386C173.953 106.391 173.601 106.263 173.25 105.965C170.693 103.79 168.116 101.642 165.549 99.483C162.982 97.3241 160.42 95.1599 157.853 92.9958C155.925 91.37 153.992 89.7548 152.075 88.1237C150.237 86.5619 148.411 84.9787 146.579 83.4062C145.391 82.3881 144.204 81.3753 143.021 80.3572C142.403 79.8242 142.398 79.8135 143.027 79.2911C145.093 77.5854 147.165 75.885 149.236 74.1845C151.979 71.9297 154.716 69.6696 157.459 67.4148C159.653 65.6131 161.858 63.8168 164.052 62.0204C165.826 60.5705 167.562 59.078 169.25 57.5321C170.416 56.466 171.54 55.352 172.643 54.2219C174.384 52.4415 176.019 50.5759 177.457 48.5343C178.304 47.3243 179.065 46.061 179.672 44.7124C180.658 42.5215 179.981 40.1815 178 38.8488C176.802 38.0439 175.449 37.7135 174.049 37.5269C172.477 37.319 170.901 37.4043 169.319 37.4896C166.619 37.6335 163.951 38.0066 161.315 38.593C155.457 39.8883 149.945 42.0525 144.896 45.32C143.256 46.3808 141.743 47.6228 140.172 48.7795C139.991 48.9128 139.805 49.1953 139.602 49.094C139.384 48.9874 139.533 48.6729 139.549 48.4543C139.666 46.8819 139.805 45.304 139.938 43.7316C140.018 42.7401 140.103 41.7486 140.183 40.7572C140.316 39.1473 140.449 37.5375 140.582 35.9277C140.619 35.4853 140.683 35.0429 140.694 34.6005C140.705 34.2593 140.864 34.0514 141.136 33.8702C142.387 33.0226 143.676 32.2391 145.008 31.5248C147.825 30.0109 150.749 28.7209 153.784 27.7028C156.937 26.6421 160.159 25.8691 163.456 25.4161C166.172 25.0483 168.899 24.9257 171.636 25.0429C174.874 25.1815 178.075 25.6293 181.174 26.5834C185.499 27.9107 188.822 30.5546 191.133 34.4459C192.443 36.6474 193.226 39.0247 193.482 41.5727C193.956 46.2102 192.731 50.3733 189.908 54.0567C189.152 55.0428 188.3 55.9543 187.459 56.8658C185.547 58.9447 183.608 60.9969 181.584 62.9692C177.739 66.7112 173.729 70.2666 169.399 73.4489C167.338 74.9628 165.219 76.3913 162.998 77.6653C162.875 77.7346 162.753 77.8146 162.63 77.8785C162.423 77.9905 162.449 78.1024 162.609 78.241C162.774 78.3796 162.918 78.5342 163.083 78.6728C165.623 80.8903 168.158 83.1131 170.699 85.3306C173.255 87.5587 175.822 89.7708 178.378 91.999C180.439 93.7953 182.49 95.6024 184.551 97.3987C186.638 99.2164 188.726 101.034 190.819 102.852C191.959 103.843 193.093 104.835 194.227 105.832C194.366 105.943 194.531 106.039 194.552 106.258Z" fill="#075358"/>
<path d="M139.638 110C136.991 110 134.35 110 131.703 110C130.941 110 130.92 109.973 131.08 109.264C132.331 103.72 133.588 98.1767 134.84 92.633C136.262 86.3431 137.678 80.0584 139.1 73.7685C140.842 66.0766 142.589 58.3901 144.33 50.7035C144.548 49.7334 144.788 48.7686 144.99 47.7931C145.07 47.3986 145.267 47.1375 145.608 46.9242C148.223 45.2984 150.961 43.9125 153.836 42.8144C156.382 41.8443 158.997 41.1353 161.697 40.7356C162.049 40.6823 162.4 40.6289 162.752 40.597C163.13 40.565 163.204 40.6449 163.13 41.0234C162.954 41.9136 162.762 42.7984 162.57 43.6833C161.372 49.275 160.174 54.8666 158.976 60.4583C158.848 61.05 158.709 61.6363 158.598 62.228C158.534 62.5585 158.384 62.8144 158.134 63.0382C157.064 63.9711 156.004 64.9199 154.939 65.8581C153.298 67.3026 151.664 68.7419 150.023 70.1864C148.037 71.9348 146.056 73.6832 144.069 75.4369C142.764 76.5883 141.46 77.7397 140.155 78.8911C140.091 78.9497 140.022 79.0083 139.958 79.0723C139.697 79.3388 139.686 79.3655 139.958 79.6213C140.623 80.261 141.3 80.89 141.976 81.519C142.743 82.2333 143.515 82.9422 144.277 83.6565C146.854 86.0712 149.427 88.4913 152.015 90.9006C152.271 91.1352 152.351 91.3484 152.276 91.6895C151.648 94.5893 151.03 97.4891 150.412 100.389C149.81 103.203 149.208 106.018 148.607 108.827C148.553 109.088 148.473 109.344 148.426 109.605C148.372 109.882 148.207 109.994 147.941 109.994C147.728 109.994 147.515 110 147.302 110C144.751 109.994 142.194 109.994 139.638 110Z" fill="#075358"/>
<path d="M90.5524 107.258C90.3447 107.445 90.0837 107.37 89.844 107.37C85.4078 107.375 80.9662 107.375 76.5299 107.381C74.4902 107.381 72.4451 107.375 70.4054 107.386C69.9527 107.391 69.6012 107.263 69.2497 106.965C66.6934 104.79 64.1158 102.642 61.5488 100.483C58.9818 98.3241 56.4202 96.1599 53.8532 93.9958C51.9253 92.37 49.9921 90.7548 48.0749 89.1237C46.2375 87.5619 44.4108 85.9787 42.5788 84.4062C41.3911 83.3881 40.2035 82.3753 39.0212 81.3572C38.4034 80.8242 38.3981 80.8135 39.0265 80.2911C41.0929 78.5854 43.1646 76.885 45.2363 75.1845C47.979 72.9297 50.7164 70.6696 53.4591 68.4148C55.6533 66.6131 57.8581 64.8168 60.0523 63.0204C61.8257 61.5705 63.5619 60.078 65.2501 58.5321C66.4164 57.466 67.5402 56.352 68.6426 55.2219C70.3841 53.4415 72.019 51.5759 73.457 49.5343C74.3038 48.3243 75.0653 47.061 75.6725 45.7124C76.6577 43.5215 75.9813 41.1815 74.0002 39.8488C72.8019 39.0439 71.4492 38.7135 70.0485 38.5269C68.4775 38.319 66.9011 38.4043 65.3194 38.4896C62.6192 38.6335 59.9511 39.0066 57.3149 39.593C51.4566 40.8883 45.9446 43.0525 40.8959 46.32C39.2555 47.3808 37.7431 48.6228 36.172 49.7795C35.9909 49.9128 35.8045 50.1953 35.6021 50.094C35.3838 49.9874 35.5329 49.6729 35.5489 49.4543C35.666 47.8819 35.8045 46.304 35.9377 44.7316C36.0175 43.7401 36.1028 42.7486 36.1826 41.7572C36.3158 40.1473 36.4489 38.5375 36.5821 36.9277C36.6193 36.4853 36.6833 36.0429 36.6939 35.6005C36.7046 35.2593 36.8643 35.0514 37.1359 34.8702C38.3875 34.0226 39.6763 33.2391 41.0077 32.5248C43.825 31.0109 46.7488 29.7209 49.7844 28.7028C52.9372 27.6421 56.1592 26.8691 59.4558 26.4161C62.1719 26.0483 64.8986 25.9257 67.636 26.0429C70.874 26.1815 74.0747 26.6293 77.1743 27.5834C81.4987 28.9107 84.8219 31.5546 87.1333 35.4459C88.4434 37.6474 89.2263 40.0247 89.4819 42.5727C89.9559 47.2102 88.731 51.3733 85.9084 55.0567C85.1521 56.0428 84.3 56.9543 83.4586 57.8658C81.5467 59.9447 79.6081 61.9969 77.5844 63.9692C73.7392 67.7112 69.729 71.2666 65.3992 74.4489C63.3382 75.9628 61.2186 77.3913 58.9978 78.6653C58.8753 78.7346 58.7528 78.8146 58.6303 78.8785C58.4226 78.9905 58.4492 79.1024 58.609 79.241C58.7741 79.3796 58.9179 79.5342 59.083 79.6728C61.6233 81.8903 64.1584 84.1131 66.6987 86.3306C69.255 88.5587 71.822 90.7708 74.3783 92.999C76.4393 94.7953 78.4897 96.6024 80.5508 98.3987C82.6384 100.216 84.7261 102.034 86.8191 103.852C87.9588 104.843 89.0931 105.835 90.2275 106.832C90.366 106.943 90.5311 107.039 90.5524 107.258Z" fill="#075358"/>
<path d="M35.6382 111C32.9913 111 30.3498 111 27.7029 111C26.9413 111 26.92 110.973 27.0798 110.264C28.3313 104.72 29.5882 99.1767 30.8397 93.633C32.2617 87.3431 33.6783 81.0584 35.1003 74.7685C36.8418 67.0766 38.5886 59.3901 40.3301 51.7035C40.5484 50.7334 40.7881 49.7686 40.9904 48.7931C41.0703 48.3986 41.2674 48.1375 41.6082 47.9242C44.2231 46.2984 46.9605 44.9125 49.8364 43.8144C52.382 42.8443 54.9969 42.1353 57.6971 41.7356C58.0486 41.6823 58.4 41.6289 58.7515 41.597C59.1297 41.565 59.2042 41.6449 59.1297 42.0234C58.9539 42.9136 58.7622 43.7984 58.5705 44.6833C57.3722 50.275 56.1739 55.8666 54.9756 61.4583C54.8478 62.05 54.7094 62.6363 54.5975 63.228C54.5336 63.5585 54.3845 63.8144 54.1342 64.0382C53.0637 64.9711 52.0039 65.9199 50.9388 66.8581C49.2985 68.3026 47.6635 69.7419 46.0232 71.1864C44.0367 72.9348 42.0556 74.6832 40.0691 76.4369C38.7643 77.5883 37.4595 78.7397 36.1547 79.8911C36.0908 79.9497 36.0216 80.0083 35.9577 80.0723C35.6967 80.3388 35.6861 80.3655 35.9577 80.6213C36.6234 81.261 37.2998 81.89 37.9761 82.519C38.743 83.2333 39.5152 83.9422 40.2768 84.6565C42.8544 87.0712 45.4267 89.4913 48.015 91.9006C48.2706 92.1352 48.3505 92.3484 48.276 92.6895C47.6475 95.5893 47.0298 98.4891 46.412 101.389C45.8102 104.203 45.2084 107.018 44.6066 109.827C44.5533 110.088 44.4734 110.344 44.4255 110.605C44.3722 110.882 44.2071 110.994 43.9409 110.994C43.7278 110.994 43.5148 111 43.3018 111C40.7508 110.994 38.1945 110.994 35.6382 111Z" fill="#028A94"/>
</svg>
